<svg width="43" height="42" viewBox="0 0 43 42" fill="none" xmlns="http://www.w3.org/2000/svg">
<path d="M27.7824 22.7675C22.1124 22.7675 17.4924 18.1475 17.4924 12.4775C17.4924 6.80751 22.1124 2.1875 27.7824 2.1875C33.4524 2.1875 38.0724 6.80751 38.0724 12.4775C38.0724 18.1475 33.4524 22.7675 27.7824 22.7675ZM27.7824 4.8125C23.5649 4.8125 20.1174 8.24251 20.1174 12.4775C20.1174 16.7125 23.5474 20.1425 27.7824 20.1425C32.0174 20.1425 35.4474 16.7125 35.4474 12.4775C35.4474 8.24251 31.9999 4.8125 27.7824 4.8125Z" fill="#12B2B2"/>
<path d="M11.6305 35.3325C7.93796 35.3325 4.92798 32.3225 4.92798 28.63C4.92798 24.9375 7.93796 21.9275 11.6305 21.9275C15.323 21.9275 18.333 24.9375 18.333 28.63C18.333 32.3225 15.323 35.3325 11.6305 35.3325ZM11.6305 24.5525C9.39046 24.5525 7.55298 26.3725 7.55298 28.63C7.55298 30.87 9.37296 32.7075 11.6305 32.7075C13.8705 32.7075 15.708 30.8875 15.708 28.63C15.708 26.39 13.8705 24.5525 11.6305 24.5525Z" fill="#12B2B2"/>
<path d="M29.5851 39.8125C26.3826 39.8125 23.7926 37.205 23.7926 34.02C23.7926 30.8175 26.4001 28.2275 29.5851 28.2275C32.7701 28.2275 35.3776 30.835 35.3776 34.02C35.3776 37.205 32.7701 39.8125 29.5851 39.8125ZM29.5851 30.835C27.8351 30.835 26.4176 32.2525 26.4176 34.0025C26.4176 35.7525 27.8351 37.17 29.5851 37.17C31.3351 37.17 32.7526 35.7525 32.7526 34.0025C32.7526 32.27 31.3351 30.835 29.5851 30.835Z" fill="#12B2B2"/>
</svg>
