<svg width="52" height="52" viewBox="0 0 52 52" fill="none" xmlns="http://www.w3.org/2000/svg">
<path d="M14.5167 40.625H8.99176C5.00509 40.625 2.70837 38.3283 2.70837 34.3416V8.9917C2.70837 5.00503 5.00509 2.70831 8.99176 2.70831H18.3084C22.2951 2.70831 24.5917 5.00503 24.5917 8.9917V13C24.5917 13.8883 23.855 14.625 22.9667 14.625C22.0783 14.625 21.3417 13.8883 21.3417 13V8.9917C21.3417 6.7817 20.5184 5.95831 18.3084 5.95831H8.99176C6.78176 5.95831 5.95837 6.7817 5.95837 8.9917V34.3416C5.95837 36.5516 6.78176 37.375 8.99176 37.375H14.5167C15.4051 37.375 16.1417 38.1116 16.1417 39C16.1417 39.8883 15.4051 40.625 14.5167 40.625Z" fill="white"/>
<path d="M32.4138 49.2917H19.7604C15.4054 49.2917 12.8921 46.7784 12.8921 42.4234V18.2433C12.8921 13.8883 15.4054 11.375 19.7604 11.375H32.4138C36.7688 11.375 39.2604 13.8883 39.2604 18.2433V42.4234C39.2604 46.7784 36.7688 49.2917 32.4138 49.2917ZM19.7604 14.625C17.1604 14.625 16.1421 15.6433 16.1421 18.2433V42.4234C16.1421 45.0234 17.1604 46.0417 19.7604 46.0417H32.4138C34.9921 46.0417 36.0104 45.0234 36.0104 42.4234V18.2433C36.0104 15.6433 34.9921 14.625 32.4138 14.625H19.7604Z" fill="white"/>
<path d="M43.008 40.625H37.6347C36.7464 40.625 36.0097 39.8883 36.0097 39C36.0097 38.1116 36.7464 37.375 37.6347 37.375H43.008C45.218 37.375 46.0414 36.5516 46.0414 34.3416V8.9917C46.0414 6.7817 45.218 5.95831 43.008 5.95831H33.6913C31.4813 5.95831 30.6581 6.7817 30.6581 8.9917V13C30.6581 13.8883 29.9214 14.625 29.0331 14.625C28.1447 14.625 27.4081 13.8883 27.4081 13V8.9917C27.4081 5.00503 29.7047 2.70831 33.6913 2.70831H43.008C46.9946 2.70831 49.2914 5.00503 49.2914 8.9917V34.3416C49.2914 38.3283 46.9946 40.625 43.008 40.625Z" fill="white"/>
<path d="M30.3333 25.4583H21.6666C20.7783 25.4583 20.0416 24.7216 20.0416 23.8333C20.0416 22.945 20.7783 22.2083 21.6666 22.2083H30.3333C31.2216 22.2083 31.9583 22.945 31.9583 23.8333C31.9583 24.7216 31.2216 25.4583 30.3333 25.4583Z" fill="white"/>
<path d="M30.3333 31.9583H21.6666C20.7783 31.9583 20.0416 31.2216 20.0416 30.3333C20.0416 29.445 20.7783 28.7083 21.6666 28.7083H30.3333C31.2216 28.7083 31.9583 29.445 31.9583 30.3333C31.9583 31.2216 31.2216 31.9583 30.3333 31.9583Z" fill="white"/>
<path d="M26 49.2917C25.1117 49.2917 24.375 48.555 24.375 47.6667V41.1667C24.375 40.2784 25.1117 39.5417 26 39.5417C26.8883 39.5417 27.625 40.2784 27.625 41.1667V47.6667C27.625 48.555 26.8883 49.2917 26 49.2917Z" fill="white"/>
</svg>
