<svg width="42" height="42" viewBox="0 0 42 42" fill="none" xmlns="http://www.w3.org/2000/svg">
<path d="M30.5375 39.8125C28.56 39.8125 26.4775 39.34 24.325 38.43C22.225 37.5375 20.1075 36.3125 18.0425 34.825C15.995 33.32 14.0175 31.64 12.145 29.8025C10.29 27.93 8.61 25.9525 7.1225 23.9225C5.6175 21.8225 4.41 19.7225 3.5525 17.6925C2.6425 15.5225 2.1875 13.4225 2.1875 11.445C2.1875 10.08 2.4325 8.785 2.905 7.5775C3.395 6.335 4.1825 5.18 5.25 4.1825C6.5975 2.8525 8.1375 2.1875 9.7825 2.1875C10.465 2.1875 11.165 2.345 11.76 2.625C12.4425 2.94 13.02 3.4125 13.44 4.0425L17.5 9.765C17.8675 10.2725 18.1475 10.7625 18.34 11.2525C18.5675 11.7775 18.69 12.3025 18.69 12.81C18.69 13.475 18.4975 14.1225 18.13 14.735C17.8675 15.2075 17.465 15.715 16.9575 16.2225L15.7675 17.465C15.785 17.5175 15.8025 17.5525 15.82 17.5875C16.03 17.955 16.45 18.585 17.255 19.53C18.1125 20.51 18.9175 21.4025 19.7225 22.225C20.755 23.24 21.6125 24.045 22.4175 24.71C23.415 25.55 24.0625 25.97 24.4475 26.1625L24.4125 26.25L25.69 24.99C26.2325 24.4475 26.7575 24.045 27.265 23.7825C28.2275 23.1875 29.4525 23.0825 30.6775 23.59C31.1325 23.7825 31.6225 24.045 32.1475 24.4125L37.9575 28.5425C38.605 28.98 39.0775 29.54 39.3575 30.205C39.62 30.87 39.7425 31.4825 39.7425 32.095C39.7425 32.935 39.55 33.775 39.1825 34.5625C38.815 35.35 38.36 36.0325 37.7825 36.6625C36.785 37.765 35.7 38.5525 34.44 39.06C33.2325 39.55 31.92 39.8125 30.5375 39.8125ZM9.7825 4.8125C8.82 4.8125 7.9275 5.2325 7.07 6.0725C6.265 6.825 5.705 7.6475 5.355 8.54C4.9875 9.45 4.8125 10.4125 4.8125 11.445C4.8125 13.0725 5.1975 14.84 5.9675 16.66C6.755 18.515 7.8575 20.44 9.2575 22.365C10.6575 24.29 12.25 26.1625 14 27.93C15.75 29.6625 17.64 31.2725 19.5825 32.69C21.4725 34.0725 23.415 35.1925 25.34 35.9975C28.3325 37.275 31.1325 37.5725 33.4425 36.61C34.335 36.2425 35.1225 35.6825 35.84 34.8775C36.2425 34.44 36.5575 33.9675 36.82 33.4075C37.03 32.97 37.135 32.515 37.135 32.06C37.135 31.78 37.0825 31.5 36.9425 31.185C36.89 31.08 36.785 30.8875 36.4525 30.66L30.6425 26.53C30.2925 26.285 29.9775 26.11 29.68 25.9875C29.295 25.83 29.1375 25.6725 28.5425 26.04C28.1925 26.215 27.8775 26.4775 27.5275 26.8275L26.1975 28.14C25.515 28.805 24.465 28.9625 23.66 28.665L23.1875 28.455C22.47 28.07 21.63 27.475 20.7025 26.6875C19.8625 25.97 18.9525 25.13 17.85 24.045C16.9925 23.17 16.135 22.2425 15.2425 21.21C14.42 20.2475 13.825 19.425 13.4575 18.7425L13.2475 18.2175C13.1425 17.815 13.1075 17.5875 13.1075 17.3425C13.1075 16.7125 13.335 16.1525 13.7725 15.715L15.085 14.35C15.435 14 15.6975 13.6675 15.8725 13.37C16.0125 13.1425 16.065 12.95 16.065 12.775C16.065 12.635 16.0125 12.425 15.925 12.215C15.8025 11.935 15.61 11.62 15.365 11.2875L11.305 5.5475C11.13 5.3025 10.92 5.1275 10.6575 5.005C10.3775 4.8825 10.08 4.8125 9.7825 4.8125ZM24.4125 26.2675L24.1325 27.4575L24.605 26.2325C24.5175 26.215 24.4475 26.2325 24.4125 26.2675Z" fill="#12B2B2"/>
<path d="M32.375 17.0625C31.6575 17.0625 31.0625 16.4675 31.0625 15.75C31.0625 15.12 30.4325 13.8075 29.3825 12.6875C28.35 11.585 27.2125 10.9375 26.25 10.9375C25.5325 10.9375 24.9375 10.3425 24.9375 9.625C24.9375 8.9075 25.5325 8.3125 26.25 8.3125C27.9475 8.3125 29.7325 9.2225 31.29 10.885C32.7425 12.4425 33.6875 14.35 33.6875 15.75C33.6875 16.4675 33.0925 17.0625 32.375 17.0625Z" fill="#12B2B2"/>
<path d="M38.5 17.0625C37.7825 17.0625 37.1875 16.4675 37.1875 15.75C37.1875 9.7125 32.2875 4.8125 26.25 4.8125C25.5325 4.8125 24.9375 4.2175 24.9375 3.5C24.9375 2.7825 25.5325 2.1875 26.25 2.1875C33.7225 2.1875 39.8125 8.2775 39.8125 15.75C39.8125 16.4675 39.2175 17.0625 38.5 17.0625Z" fill="#12B2B2"/>
</svg>
