<svg width="24" height="24" viewBox="0 0 24 24" fill="none" xmlns="http://www.w3.org/2000/svg">
<path d="M6.55 22.75C7.68 22.75 8.87 22.48 10.1 21.96C11.3 21.45 12.51 20.75 13.69 19.9C14.86 19.04 15.99 18.08 17.06 17.03C18.12 15.96 19.08 14.83 19.93 13.67C20.79 12.47 21.48 11.27 21.97 10.11C22.49 8.87 22.75 7.67 22.75 6.54C22.75 5.76 22.61 5.02 22.34 4.33C22.06 3.62 21.61 2.96 21 2.39C20.23 1.63 19.35 1.25 18.41 1.25C18.02 1.25 17.62 1.34 17.28 1.5C16.89 1.68 16.56 1.95 16.32 2.31L14 5.58C13.79 5.87 13.63 6.15 13.52 6.43C13.39 6.73 13.32 7.03 13.32 7.32C13.32 7.7 13.43 8.07 13.64 8.42C13.79 8.69 14.02 8.98 14.31 9.27L14.99 9.98C14.98 10.01 14.97 10.03 14.96 10.05C14.84 10.26 14.6 10.62 14.14 11.16C13.65 11.72 13.19 12.23 12.73 12.7C12.14 13.28 11.65 13.74 11.19 14.12C10.62 14.6 10.25 14.84 10.03 14.95L10.05 15L9.32 14.28C9.01 13.97 8.71 13.74 8.42 13.59C7.87 13.25 7.17 13.19 6.47 13.48C6.21 13.59 5.93 13.74 5.63 13.95L2.31 16.31C1.94 16.56 1.67 16.88 1.51 17.26C1.36 17.64 1.29 17.99 1.29 18.34C1.29 18.82 1.4 19.3 1.61 19.75C1.82 20.2 2.08 20.59 2.41 20.95C2.98 21.58 3.6 22.03 4.32 22.32C5.01 22.6 5.76 22.75 6.55 22.75ZM18.41 2.75C18.96 2.75 19.47 2.99 19.96 3.47C20.42 3.9 20.74 4.37 20.94 4.88C21.15 5.4 21.25 5.95 21.25 6.54C21.25 7.47 21.03 8.48 20.59 9.52C20.14 10.58 19.51 11.68 18.71 12.78C17.91 13.88 17 14.95 16 15.96C15 16.95 13.92 17.87 12.81 18.68C11.73 19.47 10.62 20.11 9.52 20.57C7.81 21.3 6.21 21.47 4.89 20.92C4.38 20.71 3.93 20.39 3.52 19.93C3.29 19.68 3.11 19.41 2.96 19.09C2.84 18.84 2.78 18.58 2.78 18.32C2.78 18.16 2.81 18 2.89 17.82C2.92 17.76 2.98 17.65 3.17 17.52L6.49 15.16C6.69 15.02 6.87 14.92 7.04 14.85C7.26 14.76 7.35 14.67 7.69 14.88C7.89 14.98 8.07 15.13 8.27 15.33L9.03 16.08C9.42 16.46 10.02 16.55 10.48 16.38L10.75 16.26C11.16 16.04 11.64 15.7 12.17 15.25C12.65 14.84 13.17 14.36 13.8 13.74C14.29 13.24 14.78 12.71 15.29 12.12C15.76 11.57 16.1 11.1 16.31 10.71L16.43 10.41C16.49 10.18 16.51 10.05 16.51 9.91C16.51 9.55 16.38 9.23 16.13 8.98L15.38 8.2C15.18 8 15.03 7.81 14.93 7.64C14.85 7.51 14.82 7.4 14.82 7.3C14.82 7.22 14.85 7.1 14.9 6.98C14.97 6.82 15.08 6.64 15.22 6.45L17.54 3.17C17.64 3.03 17.76 2.93 17.91 2.86C18.07 2.79 18.24 2.75 18.41 2.75ZM10.05 15.01L10.21 15.69L9.94 14.99C9.99 14.98 10.03 14.99 10.05 15.01Z" fill="#374151"/>
<path d="M5.5 9.75C5.91 9.75 6.25 9.41 6.25 9C6.25 8.64 6.61 7.89 7.21 7.25C7.8 6.62 8.45 6.25 9 6.25C9.41 6.25 9.75 5.91 9.75 5.5C9.75 5.09 9.41 4.75 9 4.75C8.03 4.75 7.01 5.27 6.12 6.22C5.29 7.11 4.75 8.2 4.75 9C4.75 9.41 5.09 9.75 5.5 9.75Z" fill="#374151"/>
<path d="M2 9.75C2.41 9.75 2.75 9.41 2.75 9C2.75 5.55 5.55 2.75 9 2.75C9.41 2.75 9.75 2.41 9.75 2C9.75 1.59 9.41 1.25 9 1.25C4.73 1.25 1.25 4.73 1.25 9C1.25 9.41 1.59 9.75 2 9.75Z" fill="#374151"/>
</svg>
