<svg width="52" height="52" viewBox="0 0 52 52" fill="none" xmlns="http://www.w3.org/2000/svg">
<path d="M36.1833 42.7484H15.8167C14.2133 42.7484 12.5883 41.6 12.0467 40.105L3.07667 14.9934C1.97167 11.83 2.77333 10.3784 3.64 9.72837C4.50667 9.07837 6.13167 8.68837 8.86167 10.6384L17.3117 16.6834C17.5717 16.835 17.81 16.9 17.9833 16.8567C18.1783 16.7917 18.33 16.6184 18.4383 16.315L22.2517 6.15337C23.4 3.12004 25.09 2.66504 26 2.66504C26.91 2.66504 28.6 3.12004 29.7483 6.15337L33.5617 16.315C33.67 16.5967 33.8217 16.7917 34.0167 16.8567C34.2117 16.9217 34.45 16.8567 34.6883 16.6617L42.6183 11.0067C45.5217 8.9267 47.2117 9.33837 48.1433 10.01C49.0533 10.7034 49.8983 12.2417 48.7067 15.6L39.9533 40.105C39.4117 41.6 37.7867 42.7484 36.1833 42.7484ZM5.80667 12.5884C5.85 12.8917 5.93667 13.325 6.15333 13.8884L15.1233 39C15.21 39.2167 15.6 39.4984 15.8167 39.4984H36.1833C36.4217 39.4984 36.8117 39.2167 36.8767 39L45.63 14.5167C45.9333 13.6934 46.02 13.13 46.0417 12.805C45.7167 12.9134 45.2183 13.1517 44.5033 13.6717L36.5733 19.3267C35.49 20.085 34.2117 20.3234 33.0633 19.9767C31.915 19.63 30.9833 18.72 30.5067 17.485L26.6933 7.32337C26.4117 6.56504 26.1517 6.19671 26 6.02337C25.8483 6.19671 25.5883 6.56504 25.3067 7.3017L21.4933 17.4634C21.0383 18.6984 20.1067 19.6084 18.9367 19.955C17.7883 20.3017 16.4883 20.0634 15.4267 19.305L6.97667 13.26C6.47833 12.9134 6.08833 12.6967 5.80667 12.5884Z" fill="white"/>
<path d="M37.9167 49.2917H14.0833C13.195 49.2917 12.4583 48.5551 12.4583 47.6667C12.4583 46.7784 13.195 46.0417 14.0833 46.0417H37.9167C38.805 46.0417 39.5417 46.7784 39.5417 47.6667C39.5417 48.5551 38.805 49.2917 37.9167 49.2917Z" fill="white"/>
<path d="M31.4167 31.9583H20.5833C19.695 31.9583 18.9583 31.2216 18.9583 30.3333C18.9583 29.4449 19.695 28.7083 20.5833 28.7083H31.4167C32.305 28.7083 33.0417 29.4449 33.0417 30.3333C33.0417 31.2216 32.305 31.9583 31.4167 31.9583Z" fill="white"/>
</svg>
