<svg width="52" height="52" viewBox="0 0 52 52" fill="none" xmlns="http://www.w3.org/2000/svg">
<path d="M26.325 41.925C25.4366 41.925 24.7 41.1883 24.7 40.3V35.75C24.7 34.8617 25.4366 34.125 26.325 34.125C27.2133 34.125 27.95 34.8617 27.95 35.75V40.3C27.95 41.1883 27.2133 41.925 26.325 41.925Z" fill="white"/>
<path d="M38.7833 49.2917H13.8666V45.5C13.8666 42.2067 16.5316 39.5417 19.825 39.5417H32.825C36.1183 39.5417 38.7833 42.2067 38.7833 45.5V49.2917ZM17.1166 46.0417H35.5333V45.5C35.5333 44.005 34.32 42.7917 32.825 42.7917H19.825C18.33 42.7917 17.1166 44.005 17.1166 45.5V46.0417Z" fill="white"/>
<path d="M39.325 49.2917H13.325C12.4366 49.2917 11.7 48.555 11.7 47.6667C11.7 46.7783 12.4366 46.0417 13.325 46.0417H39.325C40.2133 46.0417 40.95 46.7783 40.95 47.6667C40.95 48.555 40.2133 49.2917 39.325 49.2917Z" fill="white"/>
<path d="M39.9317 26.9533C39.4767 26.9533 39.0217 26.7583 38.6967 26.39C38.285 25.9133 38.1767 25.2417 38.4367 24.6783C39.1733 22.9883 39.5417 21.19 39.5417 19.305V12.805C39.5417 12.0467 39.4117 11.31 39.1517 10.53C39.13 10.465 39.1083 10.3783 39.0867 10.2917C39.0217 9.96665 39 9.64165 39 9.33832C39 8.44998 39.7367 7.71332 40.625 7.71332H41.925C45.8033 7.71332 48.9667 10.9633 48.9667 14.9717C48.9667 18.2867 47.6017 21.5583 45.24 23.92C45.1967 23.9633 45.0667 24.0717 45.045 24.0933C43.7667 25.155 42.315 26.3467 40.365 26.8883C40.2133 26.9317 40.0833 26.9533 39.9317 26.9533ZM42.64 11.0283C42.7483 11.6133 42.7917 12.22 42.7917 12.805V19.305C42.7917 20.1933 42.7267 21.0383 42.5967 21.905C42.7267 21.7967 42.835 21.71 42.965 21.6017C44.6983 19.8683 45.7167 17.4417 45.7167 14.9717C45.7167 13.0217 44.395 11.375 42.64 11.0283Z" fill="white"/>
<path d="M12.09 26.8667C11.9167 26.8667 11.765 26.845 11.5917 26.78C9.81499 26.2167 8.14666 25.1767 6.75999 23.79C4.26832 21.0384 3.03333 18.0267 3.03333 14.8417C3.03333 10.8984 6.13166 7.80002 10.075 7.80002H11.4833C12.025 7.80002 12.545 8.08169 12.8483 8.53669C13.1517 8.99169 13.195 9.57669 12.9783 10.075C12.6317 10.855 12.4583 11.7434 12.4583 12.675V19.175C12.4583 21.0384 12.8267 22.8584 13.585 24.5917C13.845 25.1767 13.715 25.8484 13.3033 26.325C12.9783 26.6717 12.545 26.8667 12.09 26.8667ZM9.31666 11.115C7.56166 11.4617 6.28333 12.9784 6.28333 14.8417C6.28333 17.2034 7.23666 19.4784 9.12166 21.5584C9.20832 21.6667 9.31666 21.7534 9.42499 21.84C9.27332 20.9517 9.20832 20.0634 9.20832 19.175V12.675C9.20832 12.155 9.25166 11.635 9.31666 11.115Z" fill="white"/>
<path d="M26 36.2917C16.7483 36.2917 9.20834 28.7517 9.20834 19.5V13C9.20834 7.32334 13.8233 2.70834 19.5 2.70834H32.5C38.1767 2.70834 42.7917 7.32334 42.7917 13V19.5C42.7917 28.7517 35.2517 36.2917 26 36.2917ZM19.5 5.95834C15.6217 5.95834 12.4583 9.12168 12.4583 13V19.5C12.4583 26.975 18.525 33.0417 26 33.0417C33.475 33.0417 39.5417 26.975 39.5417 19.5V13C39.5417 9.12168 36.3783 5.95834 32.5 5.95834H19.5Z" fill="white"/>
</svg>
