<svg width="52" height="52" viewBox="0 0 52 52" fill="none" xmlns="http://www.w3.org/2000/svg">
<path d="M21.645 49.2916C21.2117 49.2916 20.865 49.205 20.605 49.0966C19.7383 48.7716 18.265 47.71 18.265 44.3516V30.3766H13.195C10.2917 30.3766 9.25166 29.0116 8.88333 28.21C8.515 27.3866 8.19 25.7183 10.0967 23.53L26.4983 4.89662C28.7083 2.38329 30.5067 2.55662 31.3733 2.88162C32.24 3.20662 33.7133 4.26829 33.7133 7.62662V21.6016H38.7833C41.6867 21.6016 42.7267 22.9666 43.095 23.7683C43.4633 24.5916 43.7883 26.26 41.8817 28.4483L25.48 47.0816C23.9417 48.8366 22.5983 49.2916 21.645 49.2916ZM30.1817 5.93662C30.1167 6.02329 29.6617 6.23995 28.9467 7.06329L12.545 25.6966C11.9383 26.39 11.8517 26.8233 11.8517 26.91C11.895 26.9316 12.285 27.1483 13.195 27.1483H19.89C20.7783 27.1483 21.515 27.885 21.515 28.7733V44.3733C21.515 45.4566 21.71 45.9333 21.7967 46.0633C21.8617 45.9766 22.3167 45.76 23.0317 44.9366L39.4333 26.3033C40.04 25.61 40.1267 25.1766 40.1267 25.09C40.0833 25.0683 39.6933 24.8516 38.7833 24.8516H32.0883C31.2 24.8516 30.4633 24.115 30.4633 23.2266V7.62662C30.485 6.54329 30.2683 6.08829 30.1817 5.93662Z" fill="white"/>
</svg>
