<svg width="52" height="53" viewBox="0 0 52 53" fill="none" xmlns="http://www.w3.org/2000/svg">
<path d="M26 49.8134C23.6383 49.8134 21.2983 49.1201 19.4567 47.7551L10.14 40.8001C7.67 38.9585 5.74167 35.1235 5.74167 32.0468V15.9268C5.74167 12.5901 8.19 9.03678 11.3317 7.86678L22.1433 3.81512C24.2883 3.01345 27.6683 3.01345 29.8133 3.81512L40.6467 7.86678C43.7883 9.03678 46.2367 12.5901 46.2367 15.9268V32.0251C46.2367 35.1018 44.3083 38.9368 41.8383 40.7785L32.5217 47.7334C30.7017 49.1201 28.3617 49.8134 26 49.8134ZM23.2917 6.87012L12.48 10.9218C10.6167 11.6151 8.99167 13.9551 8.99167 15.9485V32.0468C8.99167 34.1051 10.4433 36.9868 12.0683 38.2001L21.385 45.1551C23.8767 47.0185 28.1017 47.0185 30.5933 45.1551L39.91 38.2001C41.5567 36.9651 42.9867 34.0835 42.9867 32.0468V15.9268C42.9867 13.9551 41.3617 11.6151 39.4983 10.9001L28.6867 6.84845C27.2567 6.32845 24.7433 6.32845 23.2917 6.87012Z" fill="#FF6633"/>
<path d="M26 29.2084C22.7067 29.2084 20.0417 26.5434 20.0417 23.2501C20.0417 19.9567 22.7067 17.2917 26 17.2917C29.2933 17.2917 31.9583 19.9567 31.9583 23.2501C31.9583 26.5434 29.2933 29.2084 26 29.2084ZM26 20.5417C24.505 20.5417 23.2917 21.7551 23.2917 23.2501C23.2917 24.7451 24.505 25.9584 26 25.9584C27.495 25.9584 28.7083 24.7451 28.7083 23.2501C28.7083 21.7551 27.495 20.5417 26 20.5417Z" fill="#FF6633"/>
<path d="M26 35.7083C25.1117 35.7083 24.375 34.9716 24.375 34.0833V27.5833C24.375 26.6949 25.1117 25.9583 26 25.9583C26.8883 25.9583 27.625 26.6949 27.625 27.5833V34.0833C27.625 34.9716 26.8883 35.7083 26 35.7083Z" fill="#FF6633"/>
</svg>
