<svg width="42" height="43" viewBox="0 0 42 43" fill="none" xmlns="http://www.w3.org/2000/svg">
<path d="M24.5 32.4375H17.5C16.7825 32.4375 16.1875 31.8425 16.1875 31.125C16.1875 30.4075 16.7825 29.8125 17.5 29.8125H24.5C25.2175 29.8125 25.8125 30.4075 25.8125 31.125C25.8125 31.8425 25.2175 32.4375 24.5 32.4375Z" fill="#12B2B2"/>
<path d="M3.5 32.4375C2.7825 32.4375 2.1875 31.8425 2.1875 31.125V13.625C2.1875 5.9075 4.5325 3.5625 12.25 3.5625C12.9675 3.5625 13.5625 4.1575 13.5625 4.875C13.5625 5.5925 12.9675 6.1875 12.25 6.1875C6.0025 6.1875 4.8125 7.36 4.8125 13.625V31.125C4.8125 31.8425 4.2175 32.4375 3.5 32.4375Z" fill="#12B2B2"/>
<path d="M38.5 32.4375C37.7825 32.4375 37.1875 31.8425 37.1875 31.125V13.625C37.1875 7.36 35.9975 6.1875 29.75 6.1875C29.0325 6.1875 28.4375 5.5925 28.4375 4.875C28.4375 4.1575 29.0325 3.5625 29.75 3.5625C37.4675 3.5625 39.8125 5.9075 39.8125 13.625V31.125C39.8125 31.8425 39.2175 32.4375 38.5 32.4375Z" fill="#12B2B2"/>
<path d="M12.6 40.3124H8.4C4.165 40.3124 2.1875 38.3349 2.1875 34.0999V28.3424C2.1875 24.1074 4.165 22.1299 8.4 22.1299H12.6C16.835 22.1299 18.8125 24.1074 18.8125 28.3424V34.0999C18.8125 38.3349 16.835 40.3124 12.6 40.3124ZM8.4 24.7549C5.6175 24.7549 4.8125 25.5599 4.8125 28.3424V34.0999C4.8125 36.8824 5.6175 37.6874 8.4 37.6874H12.6C15.3825 37.6874 16.1875 36.8824 16.1875 34.0999V28.3424C16.1875 25.5599 15.3825 24.7549 12.6 24.7549H8.4Z" fill="#12B2B2"/>
<path d="M33.6 40.3124H29.4C25.165 40.3124 23.1875 38.3349 23.1875 34.0999V28.3424C23.1875 24.1074 25.165 22.1299 29.4 22.1299H33.6C37.835 22.1299 39.8125 24.1074 39.8125 28.3424V34.0999C39.8125 38.3349 37.835 40.3124 33.6 40.3124ZM29.4 24.7549C26.6175 24.7549 25.8125 25.5599 25.8125 28.3424V34.0999C25.8125 36.8824 26.6175 37.6874 29.4 37.6874H33.6C36.3825 37.6874 37.1875 36.8824 37.1875 34.0999V28.3424C37.1875 25.5599 36.3825 24.7549 33.6 24.7549H29.4Z" fill="#12B2B2"/>
</svg>
