<svg width="43" height="42" viewBox="0 0 43 42" fill="none" xmlns="http://www.w3.org/2000/svg">
<path d="M21.5 39.8125C11.1225 39.8125 2.6875 31.3775 2.6875 21C2.6875 10.6225 11.1225 2.1875 21.5 2.1875C31.8775 2.1875 40.3125 10.6225 40.3125 21C40.3125 21.7175 39.7175 22.3125 39 22.3125C38.2825 22.3125 37.6875 21.7175 37.6875 21C37.6875 12.075 30.425 4.8125 21.5 4.8125C12.575 4.8125 5.3125 12.075 5.3125 21C5.3125 29.925 12.575 37.1875 21.5 37.1875C22.2175 37.1875 22.8125 37.7825 22.8125 38.5C22.8125 39.2175 22.2175 39.8125 21.5 39.8125Z" fill="#12B2B2"/>
<path d="M16.2504 38.0625H14.5004C13.7829 38.0625 13.1879 37.4675 13.1879 36.75C13.1879 36.0325 13.7479 35.455 14.4654 35.4375C11.7179 26.0575 11.7179 15.9425 14.4654 6.5625C13.7654 6.545 13.1879 5.9675 13.1879 5.25C13.1879 4.5325 13.7829 3.9375 14.5004 3.9375H16.2504C16.6704 3.9375 17.0729 4.1475 17.3179 4.48C17.5629 4.83 17.6329 5.26748 17.4929 5.66998C14.2029 15.5575 14.2029 26.46 17.4929 36.3475C17.6329 36.75 17.5629 37.1875 17.3179 37.5375C17.0729 37.8875 16.6704 38.0625 16.2504 38.0625Z" fill="#12B2B2"/>
<path d="M29.3048 22.3126C28.5873 22.3126 27.9923 21.7176 27.9923 21.0001C27.9923 15.7851 27.1523 10.6225 25.5073 5.67004C25.2798 4.98754 25.6473 4.23502 26.3298 4.00752C27.0123 3.78002 27.7648 4.14758 27.9923 4.83008C29.7248 10.0451 30.6173 15.4876 30.6173 21.0001C30.6173 21.7176 30.0223 22.3126 29.3048 22.3126Z" fill="#12B2B2"/>
<path d="M21.5 30.1175C16.6 30.1175 11.7525 29.4175 7.0625 28.035C7.045 28.735 6.4675 29.3125 5.75 29.3125C5.0325 29.3125 4.4375 28.7175 4.4375 28V26.25C4.4375 25.83 4.6475 25.4275 4.98 25.1825C5.33 24.9375 5.76751 24.8674 6.17001 25.0074C11.1225 26.6524 16.285 27.4925 21.5 27.4925C22.2175 27.4925 22.8125 28.0875 22.8125 28.805C22.8125 29.5225 22.2175 30.1175 21.5 30.1175Z" fill="#12B2B2"/>
<path d="M37.2502 17.0625C37.1102 17.0625 36.9702 17.0451 36.8302 16.9926C26.9427 13.7026 16.0402 13.7026 6.15269 16.9926C5.47019 17.2201 4.71769 16.8525 4.49019 16.17C4.26269 15.4875 4.63019 14.735 5.31269 14.5075C15.7427 11.025 27.2227 11.025 37.6352 14.5075C38.3177 14.735 38.6852 15.4875 38.4577 16.17C38.3177 16.7125 37.7927 17.0625 37.2502 17.0625Z" fill="#12B2B2"/>
<path d="M32.35 38.7625C28.535 38.7625 25.4375 35.665 25.4375 31.85C25.4375 28.035 28.535 24.9375 32.35 24.9375C36.165 24.9375 39.2625 28.035 39.2625 31.85C39.2625 35.665 36.165 38.7625 32.35 38.7625ZM32.35 27.5625C29.9875 27.5625 28.0625 29.4875 28.0625 31.85C28.0625 34.2125 29.9875 36.1375 32.35 36.1375C34.7125 36.1375 36.6375 34.2125 36.6375 31.85C36.6375 29.4875 34.7125 27.5625 32.35 27.5625Z" fill="#12B2B2"/>
<path d="M39 39.8124C38.6675 39.8124 38.335 39.69 38.0725 39.4275L36.3225 37.6775C35.815 37.17 35.815 36.3299 36.3225 35.8224C36.83 35.3149 37.67 35.3149 38.1775 35.8224L39.9275 37.5724C40.435 38.0799 40.435 38.92 39.9275 39.4275C39.665 39.69 39.3325 39.8124 39 39.8124Z" fill="#12B2B2"/>
</svg>
