<svg width="52" height="52" viewBox="0 0 52 52" fill="none" xmlns="http://www.w3.org/2000/svg">
<path d="M32.435 49.2916H19.435C7.66998 49.2916 2.64331 44.265 2.64331 32.5V19.5C2.64331 7.73498 7.66998 2.70831 19.435 2.70831H32.435C44.2 2.70831 49.2266 7.73498 49.2266 19.5V32.5C49.2266 44.265 44.2216 49.2916 32.435 49.2916ZM19.435 5.95831C9.44664 5.95831 5.89331 9.51165 5.89331 19.5V32.5C5.89331 42.4883 9.44664 46.0416 19.435 46.0416H32.435C42.4233 46.0416 45.9766 42.4883 45.9766 32.5V19.5C45.9766 9.51165 42.4233 5.95831 32.435 5.95831H19.435Z" fill="white"/>
<path d="M24.8084 39.13C24.2884 39.13 23.0318 38.935 22.2951 37.05L19.8251 30.81C19.4784 29.9217 18.2434 29.0983 17.3118 29.0983L4.31177 29.1417C3.42343 29.1417 2.68677 28.4267 2.68677 27.5167C2.68677 26.6283 3.40177 25.8917 4.31177 25.8917L17.3118 25.8483H17.3334C19.6084 25.8483 22.0351 27.495 22.8801 29.6183L24.8518 34.6017L29.3151 23.2917C29.9868 21.6017 31.1784 21.3633 31.6768 21.32C32.1751 21.2983 33.3884 21.4067 34.2334 23.01L36.4868 27.2783C36.8768 28.015 38.0468 28.73 38.8918 28.73H47.6884C48.5768 28.73 49.3134 29.4667 49.3134 30.355C49.3134 31.2433 48.5768 31.98 47.6884 31.98H38.8918C36.8334 31.98 34.5801 30.615 33.6268 28.795L31.9368 25.5883L27.3868 37.05C26.5851 38.9133 25.3068 39.13 24.8084 39.13Z" fill="white"/>
</svg>
