<svg width="52" height="52" viewBox="0 0 52 52" fill="none" xmlns="http://www.w3.org/2000/svg">
<path d="M32.435 49.2917H19.435C7.67 49.2917 2.64333 44.265 2.64333 32.5V19.5C2.64333 7.73504 7.67 2.70837 19.435 2.70837H32.435C44.2 2.70837 49.2267 7.73504 49.2267 19.5V32.5C49.2267 44.265 44.2217 49.2917 32.435 49.2917ZM19.435 5.95837C9.44667 5.95837 5.89333 9.51171 5.89333 19.5V32.5C5.89333 42.4884 9.44667 46.0417 19.435 46.0417H32.435C42.4233 46.0417 45.9767 42.4884 45.9767 32.5V19.5C45.9767 9.51171 42.4233 5.95837 32.435 5.95837H19.435Z" fill="white"/>
<path d="M24.8083 39.13C24.2883 39.13 23.0317 38.935 22.295 37.05L19.825 30.81C19.4783 29.9216 18.2433 29.0983 17.3117 29.0983L4.31167 29.1416C3.42333 29.1416 2.68667 28.4266 2.68667 27.5166C2.68667 26.6283 3.40167 25.8916 4.31167 25.8916L17.3117 25.8483H17.3333C19.6083 25.8483 22.035 27.495 22.88 29.6183L24.8517 34.6016L29.315 23.2916C29.9867 21.6016 31.1783 21.3633 31.6767 21.32C32.175 21.2983 33.3883 21.4066 34.2333 23.01L36.4867 27.2783C36.8767 28.015 38.0467 28.73 38.8917 28.73H47.6883C48.5767 28.73 49.3133 29.4666 49.3133 30.355C49.3133 31.2433 48.5767 31.98 47.6883 31.98H38.8917C36.8333 31.98 34.58 30.615 33.6267 28.795L31.9367 25.5883L27.3867 37.05C26.585 38.9133 25.3067 39.13 24.8083 39.13Z" fill="white"/>
</svg>
