<svg width="52" height="52" viewBox="0 0 52 52" fill="none" xmlns="http://www.w3.org/2000/svg">
<path d="M26 46.9083C25.3283 46.9083 24.6783 46.8217 24.1367 46.6267C15.86 43.7883 2.70834 33.7133 2.70834 18.8283C2.70834 11.245 8.84001 5.09167 16.38 5.09167C20.0417 5.09167 23.465 6.52168 26 9.07834C28.535 6.52168 31.9583 5.09167 35.62 5.09167C43.16 5.09167 49.2917 11.2667 49.2917 18.8283C49.2917 33.735 36.14 43.7883 27.8633 46.6267C27.3217 46.8217 26.6717 46.9083 26 46.9083ZM16.38 8.34167C10.6383 8.34167 5.95834 13.0433 5.95834 18.8283C5.95834 33.6267 20.1933 41.86 25.1983 43.5717C25.5883 43.7017 26.4333 43.7017 26.8233 43.5717C31.8067 41.86 46.0633 33.6483 46.0633 18.8283C46.0633 13.0433 41.3833 8.34167 35.6417 8.34167C32.3483 8.34167 29.2933 9.88001 27.3217 12.545C26.715 13.3683 25.3283 13.3683 24.7217 12.545C22.7067 9.85834 19.6733 8.34167 16.38 8.34167Z" fill="white"/>
</svg>
