<svg width="52" height="52" viewBox="0 0 52 52" fill="none" xmlns="http://www.w3.org/2000/svg">
<path d="M38.133 48.8802H13.8663C9.923 48.8802 6.32633 45.8469 5.67633 41.9468L2.79466 24.7003C2.33966 22.0136 3.63967 18.5686 5.78467 16.8569L20.7997 4.83184C23.703 2.49184 28.2747 2.51353 31.1997 4.85353L46.2147 16.8569C48.338 18.5686 49.638 22.0136 49.2047 24.7003L46.323 41.9468C45.673 45.7818 42.0114 48.8802 38.133 48.8802ZM25.978 6.37022C24.8297 6.37022 23.6813 6.71682 22.8363 7.38849L7.82135 19.4136C6.58635 20.4103 5.74135 22.6202 6.00135 24.1802L8.88302 41.4269C9.27302 43.7019 11.548 45.6302 13.8663 45.6302H38.133C40.4514 45.6302 42.7263 43.7019 43.1163 41.4052L45.998 24.1586C46.258 22.5986 45.3913 20.3669 44.178 19.3919L29.163 7.38849C28.2964 6.71682 27.148 6.37022 25.978 6.37022Z" fill="white"/>
<path d="M26 35.2083C22.1217 35.2083 18.9583 32.045 18.9583 28.1667C18.9583 24.2883 22.1217 21.125 26 21.125C29.8783 21.125 33.0417 24.2883 33.0417 28.1667C33.0417 32.045 29.8783 35.2083 26 35.2083ZM26 24.375C23.92 24.375 22.2083 26.0867 22.2083 28.1667C22.2083 30.2467 23.92 31.9583 26 31.9583C28.08 31.9583 29.7917 30.2467 29.7917 28.1667C29.7917 26.0867 28.08 24.375 26 24.375Z" fill="white"/>
</svg>
