<svg width="32" height="32" viewBox="0 0 32 32" fill="none" xmlns="http://www.w3.org/2000/svg">
<path d="M15.9965 30.3337H15.9993C18.8342 30.3337 21.6054 29.493 23.9625 27.9181C26.3196 26.3431 28.1568 24.1045 29.2416 21.4855C30.3265 18.8664 30.6103 15.9844 30.0573 13.204C29.5042 10.4236 28.1391 7.86969 26.1345 5.86513C24.13 3.86058 21.576 2.49546 18.7956 1.94241C16.0152 1.38935 13.1333 1.6732 10.5142 2.75806C7.89515 3.84291 5.65658 5.68005 4.08162 8.03716C2.50665 10.3943 1.66602 13.1655 1.66601 16.0003L1.66602 16.0032C1.67698 19.8005 3.19032 23.4392 5.87542 26.1243C8.56053 28.8094 12.1992 30.3227 15.9965 30.3337Z" stroke="#1F2A37" stroke-width="2" stroke-linecap="round" stroke-linejoin="round"/>
<path d="M14.9784 19.7337C14.9793 19.3046 15.0141 18.8761 15.0824 18.4524C15.139 18.1171 15.2409 17.791 15.3851 17.4831C15.5319 17.1787 15.7155 16.8934 15.9317 16.6337C16.1575 16.3591 16.4371 16.052 16.7704 15.7124C17.0069 15.4697 17.2344 15.2386 17.4531 15.0191C17.6635 14.8103 17.8553 14.5837 18.0264 14.3417C18.1898 14.1088 18.3212 13.855 18.4171 13.5871C18.5186 13.2866 18.5678 12.9709 18.5624 12.6537C18.6006 12.0279 18.3951 11.4115 17.9891 10.9337C17.7713 10.7179 17.51 10.5509 17.2226 10.444C16.9352 10.3371 16.6283 10.2927 16.3224 10.3137C16.0249 10.3126 15.7287 10.353 15.4424 10.4337C15.1707 10.5089 14.9162 10.6362 14.6931 10.8084C14.4715 10.9815 14.2916 11.202 14.1664 11.4537C14.0278 11.7449 13.9602 12.0647 13.9691 12.3871H12.0411C12.038 11.8394 12.1554 11.2977 12.3851 10.8004C12.5991 10.3458 12.9083 9.94245 13.2917 9.61774C13.6892 9.28716 14.147 9.03676 14.6397 8.88041C15.1835 8.70638 15.7515 8.62041 16.3224 8.62574C16.9258 8.61564 17.5265 8.70899 18.0984 8.90174C18.5862 9.06802 19.032 9.33825 19.4051 9.69374C19.7639 10.0452 20.0396 10.4725 20.2117 10.9444C20.4019 11.47 20.4954 12.0256 20.4877 12.5844C20.4905 13.0347 20.4157 13.4822 20.2664 13.9071C20.119 14.3203 19.9215 14.7139 19.6784 15.0791C19.4297 15.4533 19.1491 15.8052 18.8397 16.1311C18.5269 16.4609 18.2037 16.7822 17.8704 17.0951C17.509 17.4174 17.2425 17.8323 17.0997 18.2951C16.9661 18.7628 16.9009 19.2474 16.9064 19.7337H14.9784ZM14.8957 23.0311C14.8871 22.7418 14.9897 22.4603 15.1824 22.2444C15.2927 22.1334 15.4258 22.0476 15.5724 21.9928C15.719 21.938 15.8757 21.9156 16.0317 21.9271C16.1886 21.9159 16.346 21.9384 16.4935 21.9932C16.6409 22.0479 16.7749 22.1336 16.8864 22.2444C17.082 22.4589 17.1867 22.7409 17.1784 23.0311C17.1831 23.1733 17.1597 23.315 17.1096 23.4481C17.0595 23.5813 16.9837 23.7033 16.8864 23.8071C16.7732 23.9149 16.6386 23.9979 16.4915 24.0507C16.3443 24.1035 16.1877 24.125 16.0317 24.1137C15.8766 24.1253 15.7207 24.1039 15.5743 24.0511C15.428 23.9982 15.2944 23.9151 15.1824 23.8071C14.9889 23.5959 14.886 23.3173 14.8957 23.0311Z" fill="#1F2A37"/>
</svg>
