<svg width="42" height="42" viewBox="0 0 42 42" fill="none" xmlns="http://www.w3.org/2000/svg">
<path d="M20.9955 39.75H20.9991C24.7075 39.75 28.3327 38.6503 31.4161 36.5901C34.4995 34.5298 36.9027 31.6014 38.3219 28.1753C39.741 24.7492 40.1123 20.9792 39.3889 17.3421C38.6654 13.7049 36.8796 10.364 34.2574 7.74176C31.6352 5.11952 28.2942 3.33376 24.6571 2.61028C21.0199 1.88681 17.2499 2.25812 13.8238 3.67727C10.3977 5.09641 7.46937 7.49964 5.40909 10.5831C3.34881 13.6665 2.24915 17.2916 2.24914 21L2.24915 21.0036C2.26349 25.9711 4.24316 30.7309 7.75568 34.2435C11.2682 37.756 16.0281 39.7357 20.9955 39.75Z" stroke="#12B2B2" stroke-width="2.5" stroke-linecap="round" stroke-linejoin="round"/>
<path d="M19.6592 25.9C19.6603 25.3367 19.706 24.7744 19.7957 24.2183C19.87 23.7782 20.0036 23.3502 20.1929 22.946C20.3856 22.5465 20.6266 22.1721 20.9104 21.8313C21.2067 21.4708 21.5737 21.0677 22.0112 20.622C22.3215 20.3035 22.6202 20.0002 22.9072 19.712C23.1833 19.4381 23.4351 19.1406 23.6597 18.823C23.8741 18.5173 24.0466 18.1842 24.1724 17.8325C24.3057 17.4381 24.3702 17.0238 24.3632 16.6075C24.4132 15.7861 24.1436 14.9772 23.6107 14.35C23.3248 14.0667 22.9819 13.8476 22.6047 13.7073C22.2275 13.567 21.8247 13.5087 21.4232 13.5363C21.0327 13.5349 20.644 13.5879 20.2682 13.6938C19.9116 13.7925 19.5775 13.9595 19.2847 14.1855C18.9939 14.4127 18.7577 14.7021 18.5934 15.0325C18.4115 15.4147 18.3228 15.8345 18.3344 16.2575H15.8039C15.7998 15.5387 15.954 14.8277 16.2554 14.175C16.5363 13.5783 16.9421 13.049 17.4454 12.6228C17.9671 12.1889 18.5679 11.8603 19.2147 11.655C19.9283 11.4266 20.6739 11.3138 21.4232 11.3208C22.2151 11.3075 23.0036 11.4301 23.7542 11.683C24.3944 11.9013 24.9795 12.256 25.4692 12.7225C25.9402 13.1838 26.3019 13.7447 26.5279 14.364C26.7775 15.0538 26.9002 15.7831 26.8902 16.5165C26.8938 17.1076 26.7956 17.6949 26.5997 18.2525C26.4062 18.7949 26.147 19.3115 25.8279 19.7908C25.5015 20.2819 25.1332 20.7439 24.7272 21.1715C24.3165 21.6044 23.8924 22.0261 23.4549 22.4368C22.9805 22.8598 22.6308 23.4044 22.4434 24.0118C22.268 24.6256 22.1825 25.2617 22.1897 25.9H19.6592ZM19.5507 30.2278C19.5393 29.8482 19.674 29.4786 19.9269 29.1953C20.0717 29.0496 20.2463 28.937 20.4387 28.8651C20.6311 28.7932 20.8368 28.7637 21.0417 28.7788C21.2475 28.7641 21.4542 28.7937 21.6477 28.8655C21.8411 28.9374 22.017 29.0498 22.1634 29.1953C22.4201 29.4768 22.5575 29.847 22.5467 30.2278C22.5528 30.4144 22.5222 30.6004 22.4564 30.7752C22.3906 30.9499 22.2911 31.11 22.1634 31.2463C22.0148 31.3878 21.8382 31.4967 21.645 31.566C21.4519 31.6353 21.2464 31.6635 21.0417 31.6488C20.838 31.664 20.6334 31.6359 20.4413 31.5666C20.2492 31.4972 20.0739 31.3881 19.9269 31.2463C19.6729 30.9692 19.5378 30.6035 19.5507 30.2278Z" fill="#12B2B2"/>
</svg>
