<svg width="52" height="52" viewBox="0 0 52 52" fill="none" xmlns="http://www.w3.org/2000/svg">
<path d="M26 30.0083C25.7183 30.0083 25.4367 29.9433 25.1983 29.7917C24.4183 29.3367 24.1583 28.34 24.5917 27.5817L26.4333 24.375H24.6133C23.53 24.375 22.6417 23.8983 22.165 23.0967C21.6883 22.2733 21.7317 21.2767 22.2733 20.3233L24.5917 16.2933C25.0467 15.5133 26.0433 15.2533 26.8017 15.6867C27.5817 16.1417 27.8417 17.1383 27.4083 17.8967L25.5667 21.125H27.3867C28.47 21.125 29.3583 21.6017 29.835 22.4033C30.3117 23.2267 30.2683 24.2233 29.7267 25.1767L27.4083 29.2067C27.105 29.7267 26.5633 30.0083 26 30.0083Z" fill="white"/>
<path d="M32.0017 42.7917H20.0633C19.11 42.7917 17.8967 42.6833 17.095 41.86C16.315 41.0583 16.3367 40.0617 16.3583 39.39V37.4617C10.8983 33.8217 7.30167 27.495 7.30167 21.4717C7.30167 15.7733 9.85833 10.4433 14.3 6.86833C18.7417 3.29333 24.57 1.95 30.2683 3.20667C35.685 4.39833 40.365 8.01667 42.7917 12.8917C47.4933 22.36 42.965 32.6083 35.7283 37.4833V39.1083C35.75 39.7367 35.7717 40.885 34.8833 41.795C34.2117 42.445 33.2583 42.7917 32.0017 42.7917ZM19.5867 39.52C19.695 39.52 19.8467 39.5417 20.0417 39.5417H32.0017C32.2183 39.5417 32.37 39.52 32.4567 39.4983C32.4567 39.4333 32.4567 39.3467 32.4567 39.2817V36.5517C32.4567 35.9883 32.76 35.4467 33.2367 35.165C39.65 31.2867 43.8967 22.425 39.845 14.3C37.8517 10.2917 33.995 7.32333 29.5317 6.34833C24.8083 5.30833 19.9767 6.41333 16.2933 9.38167C12.61 12.35 10.5083 16.7483 10.5083 21.4717C10.5083 27.495 14.6683 32.695 18.785 35.1867C19.2833 35.49 19.565 36.01 19.565 36.5733V39.4983C19.5867 39.4983 19.5867 39.4983 19.5867 39.52Z" fill="white"/>
<path d="M33.5833 49.2917C33.4317 49.2917 33.28 49.27 33.1283 49.2267C28.4483 47.8833 23.53 47.8833 18.85 49.2267C17.9833 49.465 17.095 48.9667 16.835 48.1C16.575 47.2333 17.095 46.345 17.9617 46.085C23.205 44.59 28.7733 44.59 34.0167 46.085C34.8833 46.3233 35.3817 47.2333 35.1433 48.1C34.9483 48.8367 34.2983 49.2917 33.5833 49.2917Z" fill="white"/>
</svg>
