<svg width="43" height="42" viewBox="0 0 43 42" fill="none" xmlns="http://www.w3.org/2000/svg">
<path d="M21.5 39.8126C20.275 39.8126 19.0325 39.3401 18.105 38.4126L15.1125 35.4551C14.3775 34.7201 13.3625 34.3175 12.33 34.3175H11C7.3775 34.3175 4.4375 31.3951 4.4375 27.8076V8.71503C4.4375 5.12753 7.3775 2.20508 11 2.20508H32C35.6225 2.20508 38.5625 5.12753 38.5625 8.71503V27.8076C38.5625 31.3951 35.6225 34.3175 32 34.3175H30.67C29.6375 34.3175 28.6225 34.7376 27.8875 35.4551L24.895 38.4126C23.9675 39.3401 22.725 39.8126 21.5 39.8126ZM11 4.81256C8.83 4.81256 7.0625 6.56251 7.0625 8.69751V27.7901C7.0625 29.9426 8.83 31.675 11 31.675H12.33C14.0625 31.675 15.7425 32.3751 16.9675 33.5826L19.96 36.5401C20.8175 37.3801 22.2 37.3801 23.0575 36.5401L26.05 33.5826C27.275 32.3751 28.955 31.675 30.6875 31.675H32C34.17 31.675 35.9375 29.9251 35.9375 27.7901V8.69751C35.9375 6.54501 34.17 4.81256 32 4.81256H11Z" fill="#12B2B2"/>
<path d="M21.4996 27.5625C21.1846 27.5625 20.8696 27.51 20.5896 27.4225C18.2796 26.635 12.3296 23.1525 12.3296 16.6425C12.3296 13.4925 14.8846 10.9375 18.0171 10.9375C19.2946 10.9375 20.5196 11.375 21.5171 12.145C22.5146 11.375 23.7396 10.9375 25.0171 10.9375C28.1496 10.9375 30.7046 13.4925 30.7046 16.6425C30.7046 23.1525 24.7371 26.635 22.4446 27.4225C22.1296 27.51 21.8146 27.5625 21.4996 27.5625ZM17.9996 13.5625C16.3196 13.5625 14.9371 14.945 14.9371 16.6425C14.9371 21.595 19.7496 24.36 21.4296 24.9375C21.4471 24.9375 21.5171 24.9375 21.5696 24.9375C23.2671 24.3425 28.0446 21.5775 28.0446 16.66C28.0446 14.9625 26.6796 13.58 24.9821 13.58C24.0196 13.58 23.1271 14.035 22.5321 14.805C22.0421 15.47 20.9221 15.47 20.4321 14.805C19.8721 14.0175 18.9796 13.5625 17.9996 13.5625Z" fill="#12B2B2"/>
</svg>
