<svg width="43" height="42" viewBox="0 0 43 42" fill="none" xmlns="http://www.w3.org/2000/svg">
<path d="M9.25004 38.2725C7.95504 38.2725 6.67754 37.7825 5.69754 36.8025C4.75254 35.8575 4.22754 34.5975 4.22754 33.25C4.22754 31.9025 4.75254 30.6425 5.69754 29.6975L28.4475 6.94751C30.4075 4.98751 33.5925 4.98751 35.5525 6.94751C36.4975 7.89251 37.0225 9.15251 37.0225 10.5C37.0225 11.8475 36.4975 13.1075 35.5525 14.0525L12.8025 36.8025C11.8225 37.7825 10.545 38.2725 9.25004 38.2725ZM32 8.10251C31.3875 8.10251 30.775 8.33001 30.3025 8.80251L7.55254 31.5525C7.09754 32.0075 6.85254 32.6025 6.85254 33.25C6.85254 33.8975 7.09754 34.4925 7.55254 34.9475C8.48004 35.875 10.02 35.875 10.9475 34.9475L33.6975 12.1975C34.1525 11.7425 34.3975 11.1475 34.3975 10.5C34.3975 9.85251 34.1525 9.25751 33.6975 8.80251C33.225 8.33001 32.6125 8.10251 32 8.10251Z" fill="#12B2B2"/>
<path d="M32.0175 17.045C31.685 17.045 31.3525 16.9225 31.09 16.66L25.84 11.41C25.3325 10.9025 25.3325 10.0625 25.84 9.555C26.3475 9.0475 27.1875 9.0475 27.695 9.555L32.945 14.805C33.4525 15.3125 33.4525 16.1525 32.945 16.66C32.6825 16.9225 32.35 17.045 32.0175 17.045Z" fill="#12B2B2"/>
<path d="M18 9.625C17.9125 9.625 17.8425 9.6075 17.755 9.59L15.375 8.89L12.995 9.59C12.68 9.6775 12.3475 9.59 12.1375 9.3625C11.91 9.135 11.8225 8.82 11.91 8.505L12.61 6.125L11.91 3.745C11.8225 3.43 11.91 3.0975 12.1375 2.8875C12.365 2.66 12.6975 2.5725 12.995 2.66L15.375 3.36L17.755 2.66C18.07 2.5725 18.385 2.66 18.6125 2.8875C18.84 3.115 18.9275 3.4475 18.84 3.745L18.14 6.125L18.84 8.505C18.9275 8.82 18.84 9.1525 18.6125 9.3625C18.455 9.5375 18.2275 9.625 18 9.625ZM15.375 7.105C15.4625 7.105 15.5325 7.1225 15.62 7.14L16.705 7.455L16.39 6.37C16.3375 6.2125 16.3375 6.0375 16.39 5.88L16.705 4.795L15.62 5.11C15.4625 5.1625 15.2875 5.1625 15.13 5.11L14.045 4.795L14.36 5.88C14.4125 6.0375 14.4125 6.2125 14.36 6.37L14.045 7.455L15.13 7.14C15.2175 7.1225 15.2875 7.105 15.375 7.105Z" fill="#12B2B2"/>
<path d="M11 20.125C10.9125 20.125 10.8425 20.1075 10.755 20.09L8.37497 19.39L5.99497 20.09C5.67997 20.1775 5.36497 20.09 5.13747 19.8625C4.90997 19.635 4.82247 19.3025 4.90997 19.005L5.60997 16.625L4.90997 14.245C4.82247 13.93 4.90997 13.5975 5.13747 13.3875C5.36497 13.1775 5.69747 13.0725 5.99497 13.16L8.37497 13.86L10.755 13.16C11.0525 13.0725 11.385 13.16 11.6125 13.3875C11.84 13.615 11.9275 13.9475 11.84 14.245L11.14 16.625L11.84 19.005C11.9275 19.32 11.84 19.6525 11.6125 19.8625C11.455 20.0375 11.2275 20.125 11 20.125ZM8.37497 17.605C8.46247 17.605 8.53247 17.6225 8.61997 17.64L9.70497 17.955L9.38997 16.87C9.33747 16.7125 9.33747 16.5375 9.38997 16.38L9.70497 15.295L8.61997 15.61C8.46247 15.6625 8.28747 15.6625 8.12997 15.61L7.04497 15.295L7.35997 16.38C7.41247 16.5375 7.41247 16.7125 7.35997 16.87L7.04497 17.955L8.12997 17.64C8.21747 17.6225 8.28747 17.605 8.37497 17.605Z" fill="#12B2B2"/>
<path d="M37.25 28.875C37.1625 28.875 37.0925 28.8575 37.005 28.84L34.625 28.14L32.245 28.84C31.93 28.9275 31.615 28.84 31.3875 28.6125C31.16 28.385 31.0725 28.0525 31.16 27.755L31.86 25.375L31.16 22.995C31.0725 22.68 31.16 22.3475 31.3875 22.1375C31.615 21.9275 31.9475 21.8225 32.245 21.91L34.625 22.61L37.005 21.91C37.3025 21.8225 37.635 21.91 37.8625 22.1375C38.09 22.365 38.1775 22.6975 38.09 22.995L37.39 25.375L38.09 27.755C38.1775 28.07 38.09 28.4025 37.8625 28.6125C37.705 28.7875 37.4775 28.875 37.25 28.875ZM34.625 26.355C34.7125 26.355 34.7825 26.3725 34.87 26.39L35.955 26.705L35.64 25.62C35.5875 25.4625 35.5875 25.2875 35.64 25.13L35.955 24.045L34.87 24.36C34.7125 24.4125 34.5375 24.4125 34.38 24.36L33.295 24.045L33.61 25.13C33.6625 25.2875 33.6625 25.4625 33.61 25.62L33.295 26.705L34.38 26.39C34.4675 26.3725 34.5375 26.355 34.625 26.355Z" fill="#12B2B2"/>
</svg>
