<svg width="52" height="53" viewBox="0 0 52 53" fill="none" xmlns="http://www.w3.org/2000/svg">
<path d="M26 36.7916C25.1333 36.7916 24.2667 36.7266 23.4433 36.5749C18.85 35.9032 14.6683 33.2599 12.025 29.3382C10.1833 26.5649 9.20834 23.3366 9.20834 19.9999C9.20834 10.7483 16.7483 3.20825 26 3.20825C35.2517 3.20825 42.7917 10.7483 42.7917 19.9999C42.7917 23.3366 41.8167 26.5649 39.975 29.3382C37.31 33.2816 33.1283 35.9033 28.4917 36.5966C27.7333 36.7266 26.8667 36.7916 26 36.7916ZM26 6.45825C18.525 6.45825 12.4583 12.5249 12.4583 19.9999C12.4583 22.7083 13.2383 25.3083 14.7117 27.5183C16.8567 30.6816 20.215 32.8049 23.9417 33.3466C25.3283 33.5849 26.6933 33.5849 27.9717 33.3466C31.7633 32.8049 35.1217 30.6599 37.2667 27.4966C38.74 25.2866 39.52 22.6866 39.52 19.9782C39.5417 12.5249 33.475 6.45825 26 6.45825Z" fill="#00ADF8"/>
<path d="M14.0179 49.445C13.7146 49.445 13.4329 49.4017 13.1296 49.3367C11.7213 49.0117 10.6379 47.9283 10.3129 46.52L9.55461 43.335C9.51128 43.14 9.35961 42.9883 9.14295 42.9233L5.56795 42.0784C4.22461 41.7534 3.16295 40.7567 2.79461 39.435C2.42628 38.1133 2.79462 36.6833 3.76962 35.7083L12.2196 27.2584C12.5663 26.9117 13.0429 26.7384 13.5196 26.7817C13.9963 26.825 14.4296 27.085 14.7113 27.4967C16.8563 30.66 20.2146 32.805 23.9629 33.3467C25.3496 33.585 26.7146 33.585 27.9929 33.3467C31.7846 32.805 35.1429 30.66 37.2879 27.4967C37.5479 27.085 38.0029 26.825 38.4796 26.7817C38.9563 26.7384 39.4329 26.9117 39.7796 27.2584L48.2296 35.7083C49.2046 36.6833 49.5729 38.1133 49.2046 39.435C48.8363 40.7567 47.7529 41.775 46.4313 42.0784L42.8563 42.9233C42.6613 42.9667 42.5096 43.1183 42.4446 43.335L41.6863 46.52C41.3613 47.9283 40.2779 49.0117 38.8696 49.3367C37.4613 49.6834 36.0096 49.185 35.0996 48.08L25.9996 37.615L16.8996 48.1017C16.1629 48.9683 15.1229 49.445 14.0179 49.445ZM13.1946 30.8983L6.06628 38.0267C5.87128 38.2217 5.89295 38.4384 5.93628 38.5684C5.95795 38.6767 6.06628 38.8933 6.32628 38.9367L9.90128 39.7817C11.3096 40.1067 12.3929 41.19 12.7179 42.5983L13.4763 45.7833C13.5413 46.065 13.7579 46.1517 13.8879 46.195C14.0179 46.2167 14.2346 46.2384 14.4296 46.0217L22.7279 36.4667C19.0446 35.7517 15.6646 33.78 13.1946 30.8983ZM29.2713 36.445L37.5696 45.9783C37.7646 46.2167 38.0029 46.2167 38.1329 46.1733C38.2629 46.1516 38.4579 46.0434 38.5446 45.7617L39.3029 42.5767C39.6279 41.1684 40.7113 40.085 42.1196 39.76L45.6946 38.915C45.9546 38.85 46.0629 38.655 46.0846 38.5467C46.1279 38.4383 46.1496 38.2 45.9546 38.005L38.8263 30.8767C36.3346 33.7583 32.9763 35.73 29.2713 36.445Z" fill="#00ADF8"/>
<path d="M30.0953 28.4284C29.532 28.4284 28.8603 28.2767 28.0586 27.8001L26.0003 26.565L23.942 27.7784C22.057 28.905 20.822 28.255 20.367 27.93C19.912 27.605 18.937 26.6301 19.4353 24.4851L19.9553 22.2534L18.222 20.65C17.2686 19.6967 16.922 18.5484 17.247 17.5084C17.572 16.4684 18.5253 15.7317 19.8686 15.515L22.187 15.125L23.292 12.6984C23.9203 11.4634 24.8953 10.77 26.0003 10.77C27.1053 10.77 28.102 11.4851 28.7086 12.7201L29.987 15.2767L32.132 15.5367C33.4536 15.7534 34.407 16.49 34.7536 17.53C35.0786 18.57 34.732 19.7184 33.7786 20.6717L31.9803 22.4701L32.5436 24.4851C33.042 26.6301 32.067 27.605 31.612 27.93C31.3736 28.125 30.8536 28.4284 30.0953 28.4284ZM20.822 18.6784L22.317 20.1733C23.0103 20.8667 23.357 22.0367 23.1403 22.9901L22.7286 24.7234L24.462 23.705C25.3936 23.1634 26.6503 23.1634 27.5603 23.705L29.2936 24.7234L28.9036 22.9901C28.687 22.0151 29.012 20.8667 29.7053 20.1733L31.2003 18.6784L29.3153 18.3534C28.4053 18.2017 27.4953 17.5301 27.0836 16.7067L26.0003 14.5834L24.917 16.75C24.527 17.5517 23.617 18.2451 22.707 18.3967L20.822 18.6784Z" fill="#00ADF8"/>
</svg>
