<svg width="24" height="24" viewBox="0 0 24 24" fill="none" xmlns="http://www.w3.org/2000/svg">
<g clip-path="url(#clip0_6_1334)">
<path fill-rule="evenodd" clip-rule="evenodd" d="M3.0563 10.6152C4.12707 10.2336 5.25386 9.72654 6.12279 8.99239C7.15479 8.12039 7.57449 6.99733 7.85633 5.81518C8.21818 4.29641 8.36276 2.67855 8.80153 1.15731C8.96399 0.592392 9.27664 0.378849 9.4108 0.28408C9.74987 0.0446953 10.0926 -0.0192921 10.4151 0.00470795C10.7972 0.0324003 11.3222 0.177006 11.6674 0.817621C11.7166 0.909313 11.7806 1.04901 11.8237 1.2404C11.8551 1.38071 11.8754 1.81947 11.9086 2.00039C11.9917 2.44593 12.0612 2.89148 12.1265 3.33948C12.3437 4.83056 12.4686 6.097 13.1548 7.46685C14.0859 9.32654 15.0188 10.4644 16.284 10.9684C17.5074 11.4558 18.9702 11.3641 20.8391 10.9819C21.0169 10.9389 21.1929 10.9019 21.3671 10.8718C22.1911 10.7278 22.9788 11.2687 23.1406 12.0896C23.3025 12.9099 22.7788 13.7093 21.9622 13.8896C21.7917 13.9272 21.6237 13.9629 21.4576 13.9955C18.932 14.6207 16.0083 16.8521 14.3092 18.8059C13.7855 19.4084 13.0188 21.0927 12.2366 22.1672C11.6594 22.9598 11.0108 23.4822 10.4662 23.6669C10.1012 23.7912 9.79356 23.7721 9.5394 23.7093C9.17017 23.6183 8.86372 23.4182 8.62864 23.1001C8.50064 22.9259 8.38185 22.6927 8.32523 22.3948C8.29816 22.2515 8.2951 21.8872 8.29571 21.7223C8.13633 21.174 7.94125 20.6385 7.79909 20.0853C7.46002 18.7653 6.79478 17.9296 6.00462 16.8256C5.26554 15.7924 4.47172 15.1432 3.30803 14.625C3.15665 14.5881 1.9351 14.289 1.50372 14.1173C0.873566 13.8656 0.573243 13.4441 0.46432 13.217C0.279089 12.8318 0.260029 12.4952 0.296952 12.2146C0.351721 11.8004 0.537568 11.4459 0.867415 11.1598C1.07172 10.9819 1.37696 10.809 1.78557 10.7247C2.10126 10.6589 2.93877 10.6207 3.0563 10.6152ZM10.2225 8.46377C10.2791 8.58992 10.3394 8.7167 10.4034 8.8447C11.7671 11.5684 13.292 13.089 15.1455 13.8269L15.2077 13.8509C13.9677 14.7715 12.8452 15.8004 11.9874 16.7869C11.6342 17.193 11.1665 18.0367 10.6612 18.9019C10.2022 17.4096 9.4514 16.3549 8.5074 15.0349C7.78617 14.0275 7.03048 13.2693 6.10186 12.6515C6.82248 12.2816 7.50986 11.8484 8.10862 11.3426C9.10555 10.5001 9.76462 9.52408 10.2225 8.46377Z" fill="#D1D5DB"/>
</g>
<defs>
<clipPath id="clip0_6_1334">
<rect width="24" height="24" fill="white"/>
</clipPath>
</defs>
</svg>
