<svg width="46" height="46" viewBox="0 0 46 46" fill="none" xmlns="http://www.w3.org/2000/svg">
<path fill-rule="evenodd" clip-rule="evenodd" d="M18.2208 9.06503C18.0976 8.33396 18.0048 7.61118 17.9448 6.88833C17.8545 5.80404 17.9103 4.71146 17.8783 3.62718C17.8643 3.16718 17.8093 1.96791 17.8315 1.79541C18.0327 0.292194 19.246 0.0621661 19.6008 0.0210947C19.7725 -0.00354816 21.5353 -0.200603 21.9156 1.7544C22.3822 4.14475 22.5317 6.55151 22.3666 8.90901C22.7518 10.9133 23.4106 12.9093 24.2805 14.7165C27.742 21.904 34.3381 22.6022 41.4845 22.5365C42.5836 22.5201 43.4962 23.3825 43.5537 24.475C43.6112 25.5758 42.7931 26.5286 41.6989 26.6272C37.7043 27.0132 30.617 30.2169 28.1667 33.5519C27.6541 34.2501 27.3559 35.934 26.9616 37.5851C26.4113 39.8769 25.7566 42.144 25.0231 43.0969C24.913 43.2447 23.5749 44.7562 23.1757 44.978C22.2162 45.5037 21.4482 45.1997 21.0121 44.9204C20.5759 44.6411 20.0822 44.0908 19.885 43.179C19.6789 42.2261 19.853 40.2711 19.821 39.8522C19.7043 38.3325 19.4004 35.3507 18.7803 32.7879C18.4459 31.4079 18.0894 30.1347 17.4996 29.5022C15.3163 27.1611 11.8252 27.5061 8.8853 27.8922C8.5477 27.9333 8.21009 27.9826 7.87331 28.0237C6.67649 28.3769 5.40571 28.6397 4.06267 28.7958C2.03456 29.034 1.70109 27.1693 1.68301 27.0461C1.64523 26.775 1.50475 25.3786 3.03343 24.8201C3.20018 24.7626 4.43069 24.4915 4.90465 24.3847C5.56508 24.2368 6.23289 24.1219 6.90318 24.0151C13.827 21.8629 17.5875 15.8172 18.2208 9.06503ZM20.5972 16.5319C23.211 21.9369 27.1777 24.549 31.8795 25.7318H31.8787C28.943 27.2679 26.2725 29.1901 24.8571 31.1205C24.3199 31.8515 23.8271 33.3218 23.3827 34.9729C23.142 33.4369 22.8167 31.8022 22.3871 30.4057C21.8984 28.8122 21.2404 27.4898 20.506 26.7012C19.0882 25.1815 17.309 24.3355 15.3959 23.9165C17.6861 21.8876 19.4226 19.3576 20.5972 16.5319Z" fill="#E5E7EB"/>
</svg>
