<svg width="52" height="52" viewBox="0 0 52 52" fill="none" xmlns="http://www.w3.org/2000/svg">
<path d="M32.5 49.2916H19.5C9.94496 49.2916 7.04163 46.3883 7.04163 36.8333V15.1666C7.04163 5.61165 9.94496 2.70831 19.5 2.70831H32.5C42.055 2.70831 44.9583 5.61165 44.9583 15.1666V36.8333C44.9583 46.3883 42.055 49.2916 32.5 49.2916ZM19.5 5.95831C11.7433 5.95831 10.2916 7.43165 10.2916 15.1666V36.8333C10.2916 44.5683 11.7433 46.0416 19.5 46.0416H32.5C40.2566 46.0416 41.7083 44.5683 41.7083 36.8333V15.1666C41.7083 7.43165 40.2566 5.95831 32.5 5.95831H19.5Z" fill="white"/>
<path d="M30.3333 13.5417H21.6666C20.7783 13.5417 20.0416 12.805 20.0416 11.9167C20.0416 11.0284 20.7783 10.2917 21.6666 10.2917H30.3333C31.2216 10.2917 31.9583 11.0284 31.9583 11.9167C31.9583 12.805 31.2216 13.5417 30.3333 13.5417Z" fill="white"/>
<path d="M26.0001 43.03C23.2484 43.03 21.0167 40.7984 21.0167 38.0467C21.0167 35.295 23.2484 33.0634 26.0001 33.0634C28.7517 33.0634 30.9834 35.295 30.9834 38.0467C30.9834 40.7984 28.7517 43.03 26.0001 43.03ZM26.0001 36.2917C25.0467 36.2917 24.2667 37.0717 24.2667 38.025C24.2667 38.9784 25.0467 39.7584 26.0001 39.7584C26.9534 39.7584 27.7334 38.9784 27.7334 38.025C27.7334 37.0717 26.9534 36.2917 26.0001 36.2917Z" fill="white"/>
</svg>
