<svg width="52" height="52" viewBox="0 0 52 52" fill="none" xmlns="http://www.w3.org/2000/svg">
<path d="M38.0467 38.935H13.9533C5.33001 38.935 2.70834 36.3134 2.70834 27.69V13.9534C2.70834 5.33004 5.33001 2.70837 13.9533 2.70837H38.025C46.6483 2.70837 49.27 5.33004 49.27 13.9534V27.6684C49.2917 36.3134 46.67 38.935 38.0467 38.935ZM13.9533 5.95837C7.15001 5.95837 5.95834 7.15004 5.95834 13.9534V27.6684C5.95834 34.4717 7.15001 35.6634 13.9533 35.6634H38.025C44.8283 35.6634 46.02 34.4717 46.02 27.6684V13.9534C46.02 7.15004 44.8283 5.95837 38.025 5.95837H13.9533Z" fill="white"/>
<path d="M26 49.2917C25.1117 49.2917 24.375 48.5551 24.375 47.6667V37.3101C24.375 36.4217 25.1117 35.6851 26 35.6851C26.8883 35.6851 27.625 36.4217 27.625 37.3101V47.6667C27.625 48.5551 26.8883 49.2917 26 49.2917Z" fill="white"/>
<path d="M47.6667 29.7916H4.33334C3.44501 29.7916 2.70834 29.055 2.70834 28.1666C2.70834 27.2783 3.44501 26.5416 4.33334 26.5416H47.6667C48.555 26.5416 49.2917 27.2783 49.2917 28.1666C49.2917 29.055 48.555 29.7916 47.6667 29.7916Z" fill="white"/>
<path d="M35.75 49.2916H16.25C15.3617 49.2916 14.625 48.555 14.625 47.6666C14.625 46.7783 15.3617 46.0416 16.25 46.0416H35.75C36.6383 46.0416 37.375 46.7783 37.375 47.6666C37.375 48.555 36.6383 49.2916 35.75 49.2916Z" fill="white"/>
</svg>
