<svg width="52" height="53" viewBox="0 0 52 53" fill="none" xmlns="http://www.w3.org/2000/svg">
<path d="M28.7512 50.8749H23.2912C21.7745 50.8749 20.4095 50.2248 19.4995 49.1198C18.6979 48.1231 18.3945 46.8448 18.6762 45.6315L19.5645 41.71C19.7379 40.9733 20.3879 40.4531 21.1462 40.4531H30.8962C31.6545 40.4531 32.3046 40.9733 32.4779 41.71L33.3662 45.6315C33.6479 46.9315 33.3879 48.1882 32.5862 49.1849C31.6979 50.2465 30.3112 50.8749 28.7512 50.8749ZM22.4462 43.66L21.8395 46.325C21.7745 46.65 21.9045 46.9099 22.0345 47.0616C22.3162 47.4082 22.7712 47.6032 23.2912 47.6032H28.7512C29.3145 47.6032 29.7912 47.4299 30.0512 47.1049C30.2245 46.8883 30.2679 46.6283 30.2029 46.3033L29.5962 43.6383H22.4462V43.66Z" fill="white"/>
<path d="M30.8967 43.6601C30.4417 43.6601 30.0084 43.4867 29.6834 43.1184C29.0984 42.4467 29.1417 41.4283 29.8134 40.8216L33.5617 37.4848C35.0567 36.1632 34.9917 35.8384 33.8867 34.4517L27.2784 26.0666C26.91 25.6116 26.4767 25.3516 26.0217 25.3516C25.5667 25.3516 25.1334 25.6116 24.765 26.0666L18.1567 34.4517C16.9867 35.9467 17.0084 36.2717 18.4384 37.4417L22.23 40.8216C22.9017 41.4066 22.9667 42.4467 22.3601 43.1184C21.7534 43.7901 20.735 43.8549 20.0634 43.2483L16.315 39.9115C13.585 37.6798 13.3467 35.2966 15.6 32.4366L22.2084 24.0516C23.1834 22.8166 24.57 22.1016 26.0217 22.1016C27.4734 22.1016 28.8601 22.8166 29.8351 24.0516L36.4434 32.4366C38.6751 35.2533 38.4584 37.5065 35.7284 39.9115L31.98 43.2483C31.655 43.5299 31.265 43.6601 30.8967 43.6601Z" fill="white"/>
<path d="M26.0212 31.7C25.1328 31.7 24.3962 30.9633 24.3962 30.075V24.5933C24.3962 23.7049 25.1328 22.9683 26.0212 22.9683C26.9095 22.9683 27.6462 23.7049 27.6462 24.5933V30.075C27.6462 30.985 26.9095 31.7 26.0212 31.7Z" fill="white"/>
<path d="M27.1267 12.9583H24.96C22.88 12.9583 21.1684 11.2466 21.1684 9.16659V6.99992C21.1684 4.91992 22.88 3.20825 24.96 3.20825H27.1267C29.2067 3.20825 30.9184 4.91992 30.9184 6.99992V9.16659C30.9184 11.2466 29.2284 12.9583 27.1267 12.9583ZM24.96 6.45825C24.6567 6.45825 24.4184 6.69659 24.4184 6.99992V9.16659C24.4184 9.46992 24.6567 9.70825 24.96 9.70825H27.1267C27.43 9.70825 27.6684 9.46992 27.6684 9.16659V6.99992C27.6684 6.69659 27.43 6.45825 27.1267 6.45825H24.96Z" fill="white"/>
<path d="M9.25171 32.8265H7.08504C5.00504 32.8265 3.29337 31.1149 3.29337 29.0349V26.8682C3.29337 24.7882 5.00504 23.0764 7.08504 23.0764H9.25171C11.3317 23.0764 13.0434 24.7882 13.0434 26.8682V29.0349C13.0434 31.1149 11.3317 32.8265 9.25171 32.8265ZM7.08504 26.3264C6.78171 26.3264 6.54337 26.5649 6.54337 26.8682V29.0349C6.54337 29.3382 6.78171 29.5765 7.08504 29.5765H9.25171C9.55504 29.5765 9.79337 29.3382 9.79337 29.0349V26.8682C9.79337 26.5649 9.55504 26.3264 9.25171 26.3264H7.08504Z" fill="white"/>
<path d="M44.915 32.8265H42.7483C40.6683 32.8265 38.9566 31.1149 38.9566 29.0349V26.8682C38.9566 24.7882 40.6683 23.0764 42.7483 23.0764H44.915C46.995 23.0764 48.7066 24.7882 48.7066 26.8682V29.0349C48.7066 31.1149 47.0166 32.8265 44.915 32.8265ZM42.7483 26.3264C42.445 26.3264 42.2066 26.5649 42.2066 26.8682V29.0349C42.2066 29.3382 42.445 29.5765 42.7483 29.5765H44.915C45.2183 29.5765 45.4566 29.3382 45.4566 29.0349V26.8682C45.4566 26.5649 45.2183 26.3264 44.915 26.3264H42.7483Z" fill="white"/>
<path d="M8.125 26.3269C7.23667 26.3269 6.5 25.5902 6.5 24.7019C6.5 15.4502 13.4333 7.67188 22.62 6.58855C23.5083 6.50188 24.31 7.13016 24.4183 8.01849C24.5267 8.90683 23.8767 9.70853 22.9883 9.81686C15.4483 10.7052 9.75 17.0969 9.75 24.7019C9.75 25.5902 9.01333 26.3269 8.125 26.3269Z" fill="white"/>
<path d="M43.875 26.3267C42.9867 26.3267 42.25 25.5901 42.25 24.7017C42.25 17.1401 36.595 10.7484 29.0984 9.83844C28.21 9.73011 27.5817 8.9284 27.69 8.04007C27.7984 7.15173 28.6 6.50181 29.51 6.63181C38.6317 7.73681 45.5217 15.5151 45.5217 24.7234C45.5 25.5901 44.785 26.3267 43.875 26.3267Z" fill="white"/>
</svg>
