<svg width="52" height="52" viewBox="0 0 52 52" fill="none" xmlns="http://www.w3.org/2000/svg">
<path d="M38.9996 17.1384C38.9346 17.1384 38.8913 17.1384 38.8263 17.1384H38.718C34.623 17.0084 31.568 13.845 31.568 9.94502C31.568 5.95835 34.818 2.73001 38.783 2.73001C42.748 2.73001 45.998 5.98002 45.998 9.94502C45.9763 13.8667 42.9213 17.03 39.0213 17.16C39.0213 17.1384 39.0213 17.1384 38.9996 17.1384ZM38.783 5.95836C36.5946 5.95836 34.818 7.73503 34.818 9.92336C34.818 12.0684 36.4863 13.8017 38.6313 13.8884C38.653 13.8667 38.8263 13.8667 39.0213 13.8884C41.123 13.78 42.748 12.0467 42.7696 9.92336C42.7696 7.73503 40.993 5.95836 38.783 5.95836Z" fill="white"/>
<path d="M39.0217 33.1067C38.1767 33.1067 37.3317 33.0417 36.4867 32.8901C35.5983 32.7384 35.0133 31.8934 35.165 31.0051C35.3167 30.1167 36.1617 29.5317 37.05 29.6834C39.715 30.1384 42.5317 29.6401 44.4167 28.3834C45.435 27.7118 45.9767 26.8667 45.9767 26.0217C45.9767 25.1767 45.4133 24.3534 44.4167 23.6817C42.5317 22.4251 39.6717 21.9267 36.985 22.4034C36.0967 22.5767 35.2517 21.9701 35.1 21.0817C34.9483 20.1934 35.5333 19.3484 36.4217 19.1967C39.9533 18.5684 43.615 19.2401 46.215 20.9734C48.1217 22.2517 49.2267 24.0717 49.2267 26.0217C49.2267 27.9501 48.1433 29.7918 46.215 31.0918C44.2433 32.3918 41.6867 33.1067 39.0217 33.1067Z" fill="white"/>
<path d="M12.935 17.1384C12.9133 17.1384 12.8916 17.1384 12.8916 17.1384C8.99162 17.0084 5.93662 13.845 5.91496 9.945C5.91496 5.95834 9.16496 2.70834 13.13 2.70834C17.095 2.70834 20.345 5.95835 20.345 9.92335C20.345 13.845 17.29 17.0084 13.39 17.1384L12.935 15.5134L13.0866 17.1384C13.0433 17.1384 12.9783 17.1384 12.935 17.1384ZM13.1516 13.8884C13.2816 13.8884 13.39 13.8883 13.52 13.91C15.4483 13.8233 17.1383 12.09 17.1383 9.945C17.1383 7.75667 15.3616 5.98 13.1733 5.98C10.985 5.98 9.20829 7.75667 9.20829 9.945C9.20829 12.0683 10.855 13.78 12.9566 13.91C12.9783 13.8883 13.065 13.8884 13.1516 13.8884Z" fill="white"/>
<path d="M12.9133 33.1067C10.2483 33.1067 7.69167 32.3918 5.72 31.0918C3.81333 29.8134 2.70834 27.9717 2.70834 26.0217C2.70834 24.0934 3.81333 22.2517 5.72 20.9734C8.32 19.2401 11.9817 18.5684 15.5133 19.1967C16.4017 19.3484 16.9867 20.1934 16.835 21.0817C16.6833 21.9701 15.8383 22.5767 14.95 22.4034C12.2633 21.9267 9.42501 22.4251 7.51834 23.6817C6.50001 24.3534 5.95834 25.1767 5.95834 26.0217C5.95834 26.8667 6.52167 27.7118 7.51834 28.3834C9.40334 29.6401 12.22 30.1384 14.885 29.6834C15.7733 29.5317 16.6183 30.1384 16.77 31.0051C16.9217 31.8934 16.3367 32.7384 15.4483 32.8901C14.6033 33.0417 13.7583 33.1067 12.9133 33.1067Z" fill="white"/>
<path d="M25.9996 33.3233C25.9346 33.3233 25.8913 33.3233 25.8263 33.3233H25.718C21.623 33.1933 18.568 30.03 18.568 26.13C18.568 22.1433 21.818 18.9149 25.783 18.9149C29.748 18.9149 32.998 22.165 32.998 26.13C32.9763 30.0516 29.9213 33.215 26.0213 33.345C26.0213 33.3233 26.0213 33.3233 25.9996 33.3233ZM25.783 22.1433C23.5946 22.1433 21.818 23.92 21.818 26.1083C21.818 28.2533 23.4863 29.9866 25.6313 30.0733C25.653 30.0516 25.8263 30.0516 26.0213 30.0733C28.123 29.965 29.748 28.2316 29.7696 26.1083C29.7696 23.9416 27.993 22.1433 25.783 22.1433Z" fill="white"/>
<path d="M25.9995 49.3133C23.3995 49.3133 20.7995 48.6416 18.7845 47.2766C16.8779 45.9983 15.7729 44.1783 15.7729 42.2283C15.7729 40.3 16.8562 38.4366 18.7845 37.1583C22.8362 34.4716 29.1845 34.4716 33.2145 37.1583C35.1212 38.4366 36.2262 40.2566 36.2262 42.2066C36.2262 44.135 35.1429 45.9983 33.2145 47.2766C31.1995 48.62 28.5995 49.3133 25.9995 49.3133ZM20.5829 39.8883C19.5645 40.56 19.0229 41.405 19.0229 42.25C19.0229 43.095 19.5862 43.9183 20.5829 44.59C23.5079 46.5616 28.4695 46.5616 31.3945 44.59C32.4129 43.9183 32.9545 43.0733 32.9545 42.2283C32.9545 41.3833 32.3912 40.56 31.3945 39.8883C28.4912 37.9166 23.5295 37.9383 20.5829 39.8883Z" fill="white"/>
</svg>
