<svg width="52" height="52" viewBox="0 0 52 52" fill="none" xmlns="http://www.w3.org/2000/svg">
<path d="M39.2167 38.4583H12.7833C7.75665 38.4583 4.875 35.5767 4.875 30.55V4.33331C4.875 3.44498 5.61167 2.70831 6.5 2.70831H45.5C46.3883 2.70831 47.125 3.44498 47.125 4.33331V30.55C47.125 35.5767 44.2433 38.4583 39.2167 38.4583ZM8.125 5.95831V30.55C8.125 33.7783 9.55499 35.2083 12.7833 35.2083H39.195C42.4233 35.2083 43.8533 33.7783 43.8533 30.55V5.95831H8.125Z" fill="white"/>
<path d="M47.6666 5.95831H4.33325C3.44492 5.95831 2.70825 5.22165 2.70825 4.33331C2.70825 3.44498 3.44492 2.70831 4.33325 2.70831H47.6666C48.5549 2.70831 49.2916 3.44498 49.2916 4.33331C49.2916 5.22165 48.5549 5.95831 47.6666 5.95831Z" fill="white"/>
<path d="M17.3339 49.2916C16.7272 49.2916 16.1639 48.9666 15.8822 48.4033C15.4705 47.6016 15.7956 46.6266 16.6189 46.2149L24.3756 42.3367V36.8333C24.3756 35.945 25.1122 35.2083 26.0006 35.2083C26.8889 35.2083 27.6256 35.945 27.6256 36.8333V43.3333C27.6256 43.94 27.2789 44.5033 26.7155 44.785L18.0489 49.1183C17.8322 49.2267 17.5722 49.2916 17.3339 49.2916Z" fill="white"/>
<path d="M34.6666 49.2916C34.4283 49.2916 34.1683 49.2267 33.9517 49.1183L25.285 44.785C24.4833 44.3733 24.1583 43.3983 24.5483 42.5967C24.9599 41.795 25.935 41.47 26.7366 41.86L35.4033 46.1933C36.205 46.605 36.53 47.58 36.14 48.3816C35.8366 48.9666 35.2516 49.2916 34.6666 49.2916Z" fill="white"/>
<path d="M16.2499 25.4583C15.7949 25.4583 15.3183 25.2634 14.9933 24.8734C14.4083 24.18 14.5166 23.1617 15.2099 22.5767L22.0349 16.8784C22.6633 16.3584 23.4649 16.1417 24.2232 16.2717C25.0032 16.4017 25.6749 16.8783 26.0866 17.5716L28.3616 21.3633L34.7099 16.0767C35.4032 15.5134 36.4216 15.6 37.0066 16.2933C37.5916 16.9866 37.4833 18.005 36.7899 18.59L29.9649 24.2883C29.3366 24.8083 28.5349 25.025 27.7766 24.895C26.9966 24.765 26.3249 24.2884 25.9132 23.595L23.6383 19.8034L17.2899 25.09C16.9866 25.3283 16.6183 25.4583 16.2499 25.4583Z" fill="white"/>
</svg>
