<svg width="52" height="52" viewBox="0 0 52 52" fill="none" xmlns="http://www.w3.org/2000/svg">
<path d="M43.3333 12.4584H30.3333C29.445 12.4584 28.7083 11.7217 28.7083 10.8334C28.7083 9.94504 29.445 9.20837 30.3333 9.20837H43.3333C44.2217 9.20837 44.9583 9.94504 44.9583 10.8334C44.9583 11.7217 44.2217 12.4584 43.3333 12.4584Z" fill="white"/>
<path d="M36.8333 18.9584H30.3333C29.445 18.9584 28.7083 18.2217 28.7083 17.3334C28.7083 16.445 29.445 15.7084 30.3333 15.7084H36.8333C37.7217 15.7084 38.4583 16.445 38.4583 17.3334C38.4583 18.2217 37.7217 18.9584 36.8333 18.9584Z" fill="white"/>
<path d="M24.9167 47.125C12.675 47.125 2.70834 37.1584 2.70834 24.9167C2.70834 12.675 12.675 2.70837 24.9167 2.70837C25.805 2.70837 26.5417 3.44504 26.5417 4.33337C26.5417 5.22171 25.805 5.95837 24.9167 5.95837C14.4517 5.95837 5.95834 14.4734 5.95834 24.9167C5.95834 35.36 14.4517 43.875 24.9167 43.875C35.3817 43.875 43.875 35.36 43.875 24.9167C43.875 24.0284 44.6117 23.2917 45.5 23.2917C46.3883 23.2917 47.125 24.0284 47.125 24.9167C47.125 37.1584 37.1583 47.125 24.9167 47.125Z" fill="white"/>
<path d="M47.6667 49.2917C47.255 49.2917 46.8433 49.14 46.5183 48.815L42.185 44.4817C41.5567 43.8533 41.5567 42.8133 42.185 42.185C42.8133 41.5567 43.8533 41.5567 44.4817 42.185L48.815 46.5183C49.4433 47.1467 49.4433 48.1867 48.815 48.815C48.49 49.14 48.0783 49.2917 47.6667 49.2917Z" fill="white"/>
</svg>
