<svg width="52" height="52" viewBox="0 0 52 52" fill="none" xmlns="http://www.w3.org/2000/svg">
<path d="M31.8499 49.2917H20.1499C9.44661 49.2917 4.89661 44.72 4.89661 34.0383V24.31C4.89661 23.4217 5.63327 22.685 6.52161 22.685C7.40994 22.685 8.14661 23.4217 8.14661 24.31V34.0383C8.14661 42.9 11.2883 46.0417 20.1499 46.0417H31.8283C40.6899 46.0417 43.8316 42.9 43.8316 34.0383V24.31C43.8316 23.4217 44.5683 22.685 45.4566 22.685C46.3449 22.685 47.0816 23.4217 47.0816 24.31V34.0383C47.1033 44.72 42.5316 49.2917 31.8499 49.2917Z" fill="white"/>
<path d="M26 27.625C23.6166 27.625 21.45 26.6933 19.9116 24.9816C18.3733 23.27 17.6583 21.0383 17.8966 18.655L19.3483 4.18165C19.435 3.35831 20.1283 2.70831 20.9733 2.70831H31.0916C31.9366 2.70831 32.63 3.33665 32.7166 4.18165L34.1683 18.655C34.4066 21.0383 33.6916 23.27 32.1533 24.9816C30.55 26.6933 28.3833 27.625 26 27.625ZM22.425 5.95831L21.125 18.98C20.9733 20.4316 21.4066 21.7966 22.3166 22.7933C24.1583 24.83 27.8416 24.83 29.6833 22.7933C30.5933 21.775 31.0266 20.41 30.875 18.98L29.575 5.95831H22.425Z" fill="white"/>
<path d="M39.6716 27.625C35.2733 27.625 31.3516 24.0716 30.8966 19.695L29.38 4.50665C29.3366 4.05165 29.4883 3.59665 29.7916 3.24998C30.095 2.90331 30.5283 2.70831 31.005 2.70831H37.6133C43.9833 2.70831 46.9516 5.37331 47.84 11.9166L48.4466 17.94C48.7066 20.4966 47.9266 22.9233 46.2583 24.765C44.59 26.6066 42.25 27.625 39.6716 27.625ZM32.8033 5.95831L34.1466 19.37C34.4283 22.0783 36.9416 24.375 39.6716 24.375C41.3183 24.375 42.7916 23.7466 43.8533 22.5983C44.8933 21.45 45.37 19.9116 45.2183 18.265L44.6116 12.3066C43.94 7.40998 42.3583 5.95831 37.6133 5.95831H32.8033Z" fill="white"/>
<path d="M12.22 27.625C9.64171 27.625 7.30171 26.6066 5.63338 24.765C3.96505 22.9233 3.18505 20.4966 3.44505 17.94L4.03005 11.9816C4.94005 5.37331 7.90838 2.70831 14.2784 2.70831H20.8867C21.3417 2.70831 21.775 2.90331 22.1 3.24998C22.425 3.59665 22.555 4.05165 22.5117 4.50665L20.995 19.695C20.54 24.0716 16.6184 27.625 12.22 27.625ZM14.2784 5.95831C9.53338 5.95831 7.95171 7.38831 7.25838 12.35L6.67338 18.265C6.50005 19.9116 6.99838 21.45 8.03838 22.5983C9.07838 23.7466 10.5517 24.375 12.22 24.375C14.95 24.375 17.485 22.0783 17.745 19.37L19.0884 5.95831H14.2784Z" fill="white"/>
<path d="M31.4167 49.2916H20.5834C19.695 49.2916 18.9584 48.555 18.9584 47.6666V42.25C18.9584 37.7 21.45 35.2083 26 35.2083C30.55 35.2083 33.0417 37.7 33.0417 42.25V47.6666C33.0417 48.555 32.305 49.2916 31.4167 49.2916ZM22.2084 46.0416H29.7917V42.25C29.7917 39.52 28.73 38.4583 26 38.4583C23.27 38.4583 22.2084 39.52 22.2084 42.25V46.0416Z" fill="white"/>
</svg>
