<svg width="42" height="42" viewBox="0 0 42 42" fill="none" xmlns="http://www.w3.org/2000/svg">
<path d="M30.1349 17.0625H15.68C14.7 17.0625 13.72 16.73 12.95 16.1L9.11754 13.0375C8.06754 12.1975 7.47253 10.955 7.47253 9.625C7.47253 8.295 8.06754 7.03498 9.11754 6.21248L12.95 3.14998C13.72 2.53748 14.7 2.1875 15.68 2.1875H30.1349C32.5499 2.1875 34.5099 4.1475 34.5099 6.5625V12.6875C34.5099 15.1025 32.5499 17.0625 30.1349 17.0625ZM15.68 4.8125C15.2775 4.8125 14.8925 4.9525 14.595 5.1975L10.7625 8.26C10.3425 8.5925 10.0975 9.1 10.0975 9.625C10.0975 10.15 10.3425 10.6575 10.7625 10.99L14.595 14.0525C14.91 14.2975 15.295 14.4375 15.68 14.4375H30.1349C31.0974 14.4375 31.8849 13.65 31.8849 12.6875V6.5625C31.8849 5.6 31.0974 4.8125 30.1349 4.8125H15.68Z" fill="#12B2B2"/>
<path d="M26.3547 34.5625H11.8997C9.48466 34.5625 7.52466 32.6025 7.52466 30.1875V24.0625C7.52466 21.6475 9.48466 19.6875 11.8997 19.6875H26.3547C27.3522 19.6875 28.3147 20.02 29.0847 20.65L32.9172 23.7125C33.9672 24.5525 34.5622 25.795 34.5622 27.125C34.5622 28.455 33.9672 29.715 32.9172 30.5375L29.0847 33.6C28.3147 34.23 27.3522 34.5625 26.3547 34.5625ZM11.8997 22.3125C10.9372 22.3125 10.1497 23.1 10.1497 24.0625V30.1875C10.1497 31.15 10.9372 31.9375 11.8997 31.9375H26.3547C26.7572 31.9375 27.1422 31.7975 27.4397 31.5525L31.2722 28.49C31.6922 28.1575 31.9372 27.65 31.9372 27.125C31.9372 26.6 31.6922 26.0925 31.2722 25.76L27.4397 22.6975C27.1247 22.4525 26.7397 22.3125 26.3547 22.3125H11.8997Z" fill="#12B2B2"/>
<path d="M21 22.3125C20.2825 22.3125 19.6875 21.7175 19.6875 21V15.75C19.6875 15.0325 20.2825 14.4375 21 14.4375C21.7175 14.4375 22.3125 15.0325 22.3125 15.75V21C22.3125 21.7175 21.7175 22.3125 21 22.3125Z" fill="#12B2B2"/>
<path d="M21 39.8125C20.2825 39.8125 19.6875 39.2175 19.6875 38.5V33.25C19.6875 32.5325 20.2825 31.9375 21 31.9375C21.7175 31.9375 22.3125 32.5325 22.3125 33.25V38.5C22.3125 39.2175 21.7175 39.8125 21 39.8125Z" fill="#12B2B2"/>
<path d="M26.25 39.8125H15.75C15.0325 39.8125 14.4375 39.2175 14.4375 38.5C14.4375 37.7825 15.0325 37.1875 15.75 37.1875H26.25C26.9675 37.1875 27.5625 37.7825 27.5625 38.5C27.5625 39.2175 26.9675 39.8125 26.25 39.8125Z" fill="#12B2B2"/>
</svg>
