<svg width="52" height="52" viewBox="0 0 52 52" fill="none" xmlns="http://www.w3.org/2000/svg">
<path d="M26.0217 36.8333C24.18 36.8333 22.3167 36.3567 20.865 35.425L7.82169 26.91C5.39503 25.3283 3.94336 22.6633 3.94336 19.76C3.94336 16.8567 5.39503 14.1917 7.82169 12.61L20.8867 4.11668C23.79 2.23168 28.3184 2.23168 31.2 4.13835L44.1784 12.6533C46.5834 14.235 48.035 16.9 48.035 19.7817C48.035 22.6633 46.5834 25.3283 44.1784 26.91L31.2 35.425C29.7484 36.3783 27.885 36.8333 26.0217 36.8333ZM26.0217 5.95835C24.7867 5.95835 23.5517 6.24001 22.6634 6.84668L9.62003 15.34C8.10336 16.3367 7.21503 17.94 7.21503 19.76C7.21503 21.58 8.08169 23.1833 9.62003 24.18L22.6634 32.695C24.4617 33.865 27.625 33.865 29.4234 32.695L42.4017 24.18C43.9184 23.1833 44.785 21.58 44.785 19.76C44.785 17.94 43.9184 16.3367 42.4017 15.34L29.4234 6.82501C28.5134 6.26168 27.2784 5.95835 26.0217 5.95835Z" fill="white"/>
<path d="M26 49.2917C25.0466 49.2917 24.0716 49.1617 23.2916 48.9017L16.38 46.605C13.1083 45.5217 10.53 41.9467 10.5516 38.5017L10.5733 28.34C10.5733 27.4517 11.31 26.715 12.1983 26.715C13.0866 26.715 13.8233 27.4517 13.8233 28.34L13.8016 38.5017C13.8016 40.5384 15.4916 42.8784 17.42 43.5284L24.3316 45.825C25.1983 46.1067 26.8017 46.1067 27.6683 45.825L34.58 43.5284C36.5083 42.8784 38.1983 40.5384 38.1983 38.5234V28.47C38.1983 27.5817 38.935 26.845 39.8233 26.845C40.7116 26.845 41.4483 27.5817 41.4483 28.47V38.5234C41.4483 41.9684 38.8917 45.5217 35.62 46.6267L28.7083 48.9234C27.9283 49.1617 26.9533 49.2917 26 49.2917Z" fill="white"/>
<path d="M46.3667 34.125C45.4784 34.125 44.7417 33.3883 44.7417 32.5V19.5C44.7417 18.6117 45.4784 17.875 46.3667 17.875C47.255 17.875 47.9917 18.6117 47.9917 19.5V32.5C47.9917 33.3883 47.255 34.125 46.3667 34.125Z" fill="white"/>
</svg>
