<svg width="52" height="52" viewBox="0 0 52 52" fill="none" xmlns="http://www.w3.org/2000/svg">
<path d="M26 49.2917C14.6467 49.2917 5.41666 40.0617 5.41666 28.7083C5.41666 17.355 14.6467 8.125 26 8.125C37.3533 8.125 46.5833 17.355 46.5833 28.7083C46.5833 40.0617 37.3533 49.2917 26 49.2917ZM26 11.375C16.445 11.375 8.66666 19.1533 8.66666 28.7083C8.66666 38.2633 16.445 46.0417 26 46.0417C35.555 46.0417 43.3333 38.2633 43.3333 28.7083C43.3333 19.1533 35.555 11.375 26 11.375Z" fill="#12B2B2"/>
<path d="M26 29.7916C25.1117 29.7916 24.375 29.0549 24.375 28.1666V17.3333C24.375 16.4449 25.1117 15.7083 26 15.7083C26.8883 15.7083 27.625 16.4449 27.625 17.3333V28.1666C27.625 29.0549 26.8883 29.7916 26 29.7916Z" fill="#12B2B2"/>
<path d="M32.5 5.95825H19.5C18.6117 5.95825 17.875 5.22159 17.875 4.33325C17.875 3.44492 18.6117 2.70825 19.5 2.70825H32.5C33.3883 2.70825 34.125 3.44492 34.125 4.33325C34.125 5.22159 33.3883 5.95825 32.5 5.95825Z" fill="#12B2B2"/>
</svg>
