<svg width="24" height="24" viewBox="0 0 24 24" fill="none" xmlns="http://www.w3.org/2000/svg">
<g clip-path="url(#clip0_24_1657)">
<path d="M20.7946 7.15351C20.7775 6.89579 20.8943 6.64741 21.1036 6.49608C21.3156 6.34275 21.5208 6.18075 21.7185 6.01056C21.5664 6.0355 21.4135 6.05717 21.2602 6.07553C20.9088 6.11761 20.5759 5.90837 20.4614 5.57354C20.3468 5.23871 20.482 4.8694 20.7855 4.68751C20.9797 4.57116 21.163 4.44 21.334 4.29573C21.0118 4.3918 20.6848 4.47263 20.3538 4.53775C20.1005 4.58757 19.8395 4.50368 19.6627 4.31568C18.0814 2.63442 15.4373 2.55304 13.7561 4.13396L20.7946 7.15351ZM20.7946 7.15351C20.8067 7.33555 20.807 7.52262 20.807 7.73985C20.807 13.9061 16.1304 20.9581 7.62259 20.9997M20.7946 7.15351L7.62259 20.9997M7.62259 20.9997C7.59721 20.9971 7.57161 20.9958 7.54588 20.9959C5.99345 20.9982 4.46059 20.7264 3.01564 20.2004C4.73503 19.8992 6.36364 19.1776 7.75047 18.0875C7.99977 17.8916 8.0989 17.56 7.99808 17.2594C7.89725 16.9587 7.61827 16.754 7.30124 16.748C5.91683 16.7217 4.66439 16.0163 3.91622 14.9086C4.31743 14.8874 4.71648 14.8236 5.10666 14.7176C5.4422 14.6264 5.67108 14.3166 5.65959 13.9691C5.6481 13.6216 5.39927 13.3275 5.05844 13.2587C3.4851 12.941 2.26902 11.7635 1.85939 10.2755C2.28645 10.3917 2.72724 10.4575 3.17301 10.4705C3.50733 10.4803 3.80774 10.2676 3.90947 9.94896C4.0112 9.63034 3.88965 9.28286 3.61149 9.09712C2.08879 8.08035 1.43982 6.22687 1.89646 4.53548C4.48566 7.23074 8.01727 8.85276 11.7803 9.04191C12.0154 9.05372 12.2424 8.95452 12.3933 8.77398C12.5443 8.59343 12.6018 8.35249 12.5486 8.12324C12.212 6.67372 12.6722 5.15435 13.7558 4.13419L7.62259 20.9997Z" stroke="#374151" stroke-width="1.5" stroke-linejoin="round"/>
</g>
<defs>
<clipPath id="clip0_24_1657">
<rect width="24" height="24" fill="white"/>
</clipPath>
</defs>
</svg>
