<svg width="43" height="42" viewBox="0 0 43 42" fill="none" xmlns="http://www.w3.org/2000/svg">
<path d="M19.3825 26.5475C19.0325 26.5475 18.7 26.4075 18.455 26.1625L14.22 21.9275C13.7125 21.42 13.7125 20.58 14.22 20.0725C14.7275 19.565 15.5675 19.565 16.075 20.0725L19.3825 23.38L26.9075 15.855C27.415 15.3475 28.255 15.3475 28.7625 15.855C29.27 16.3625 29.27 17.2025 28.7625 17.71L20.31 26.1625C20.065 26.4075 19.7325 26.5475 19.3825 26.5475Z" fill="#12B2B2"/>
<path d="M21.5 39.8125C20.3975 39.8125 19.295 39.445 18.4375 38.71L15.6725 36.33C15.3925 36.085 14.6925 35.84 14.325 35.84H11.315C8.725 35.84 6.625 33.74 6.625 31.15V28.1575C6.625 27.79 6.38 27.1075 6.135 26.8275L3.7725 24.045C2.3375 22.3475 2.3375 19.67 3.7725 17.9725L6.135 15.19C6.38 14.91 6.625 14.2275 6.625 13.86V10.85C6.625 8.26 8.725 6.16 11.315 6.16H14.3425C14.71 6.16 15.41 5.8975 15.69 5.67L18.455 3.29C20.17 1.82 22.8475 1.82 24.5625 3.29L27.3275 5.67C27.6075 5.915 28.3075 6.16 28.675 6.16H31.65C34.24 6.16 36.34 8.26 36.34 10.85V13.825C36.34 14.1925 36.6025 14.8925 36.8475 15.1725L39.2275 17.9375C40.6975 19.6525 40.6975 22.33 39.2275 24.045L36.8475 26.81C36.6025 27.09 36.34 27.79 36.34 28.1575V31.1325C36.34 33.7225 34.24 35.8225 31.65 35.8225H28.675C28.3075 35.8225 27.6075 36.085 27.3275 36.3125L24.5625 38.6925C23.705 39.445 22.6025 39.8125 21.5 39.8125ZM11.315 8.785C10.1775 8.785 9.25 9.7125 9.25 10.85V13.8425C9.25 14.84 8.7775 16.1175 8.13 16.87L5.7675 19.6525C5.155 20.37 5.155 21.6125 5.7675 22.33L8.13 25.1125C8.7775 25.8825 9.25 27.1425 9.25 28.14V31.1325C9.25 32.27 10.1775 33.1975 11.315 33.1975H14.3425C15.3575 33.1975 16.635 33.67 17.405 34.335L20.17 36.715C20.8875 37.3275 22.1475 37.3275 22.865 36.715L25.63 34.335C26.4 33.6875 27.6775 33.1975 28.6925 33.1975H31.6675C32.805 33.1975 33.7325 32.27 33.7325 31.1325V28.1575C33.7325 27.1425 34.205 25.865 34.87 25.095L37.25 22.33C37.8625 21.6125 37.8625 20.3525 37.25 19.635L34.87 16.87C34.205 16.1 33.7325 14.8225 33.7325 13.8075V10.85C33.7325 9.7125 32.805 8.785 31.6675 8.785H28.6925C27.6775 8.785 26.4 8.3125 25.63 7.6475L22.865 5.2675C22.1475 4.655 20.8875 4.655 20.17 5.2675L17.405 7.665C16.635 8.3125 15.34 8.785 14.3425 8.785H11.315Z" fill="#12B2B2"/>
</svg>
