<svg width="818" height="374" viewBox="0 0 818 374" fill="none" xmlns="http://www.w3.org/2000/svg">
<path d="M701.874 571.399L701.582 571.296C693.989 554.732 686.719 537.967 679.486 521.263C655.604 466.115 631.994 411.566 597.425 367.174C517.757 264.831 379.819 216.539 46.2229 339.392L45.8965 339.277C379.795 216.279 517.849 264.627 597.634 367.075C632.216 411.487 655.843 466.042 679.714 521.218C686.967 537.977 694.257 554.795 701.874 571.399ZM712.027 574.992L711.717 574.882C701.564 555.068 691.912 534.818 682.256 514.581C655.484 458.426 628.804 402.445 591.736 356.649C504.771 249.253 360.525 197.865 23.6276 331.413L23.3012 331.297C360.506 197.59 504.889 249.027 591.945 356.55C629.043 402.372 655.722 458.353 682.507 514.528C692.165 534.813 701.854 555.123 712.027 574.992ZM724 579.228L723.674 579.113C710.654 556.145 698.327 532.367 685.963 508.53C656.139 451.058 626.175 393.27 586.156 345.817C491.445 233.54 340.442 179.178 2.09515 323.762L1.78593 323.652C340.406 178.898 491.564 233.314 586.347 345.711C626.379 393.185 656.36 450.979 686.18 508.465C698.58 532.362 710.944 556.2 724 579.228ZM737.778 584.104L737.451 583.988C721.332 558.035 706.064 530.715 690.685 503.215C657.581 444.032 623.983 383.951 580.498 334.547C477.612 217.679 319.375 160.6 -18.3699 316.536L-18.6791 316.426C319.339 160.319 477.708 217.461 580.672 334.436C624.17 383.86 657.785 443.947 690.902 503.15C706.317 530.71 721.622 558.09 737.778 584.104ZM748.649 582.554L748.559 582.805C730.819 556.027 713.772 527.559 696.528 498.721C659.811 437.348 622.12 374.355 574.493 322.62C463.074 201.568 297.214 142.216 -37.7305 309.685L-38.0226 309.582C297.177 141.936 463.154 201.344 574.684 322.515C622.324 374.27 660.027 437.283 696.744 498.656C713.957 527.419 730.944 555.835 748.649 582.554ZM752.924 570.473L752.834 570.724C736.327 546.632 720.128 521.123 703.668 495.206C662.934 431.09 620.527 364.383 567.922 309.832C447.644 185.141 273.845 124.13 -55.9009 303.24L-56.193 303.136C273.782 123.871 447.696 184.939 568.092 309.735C620.731 364.298 663.133 431.018 703.867 495.135C720.308 520.997 736.475 546.433 752.924 570.473ZM757.208 558.363L757.119 558.615C742.263 537.561 727.421 515.427 712.271 492.854C666.999 425.338 619.106 353.921 560.419 296.022C431.037 168.377 249.15 106.517 -72.8958 297.242L-73.1707 297.144C249.092 106.245 431.116 168.153 560.593 295.911C619.293 353.829 667.186 425.246 712.47 492.783C727.588 515.282 742.388 537.37 757.208 558.363ZM761.503 546.226L761.414 546.478C748.663 528.923 735.78 510.597 722.607 491.886C672.204 420.241 617.781 342.863 551.69 280.976C413.075 151.181 223.156 89.5149 -88.563 291.698L-88.8379 291.6C223.085 89.2224 413.159 150.943 551.87 280.851C617.973 342.758 672.414 420.142 722.811 491.8C735.947 510.452 748.794 528.717 761.503 546.226ZM765.808 534.061L765.719 534.313C755.648 520.821 745.396 506.857 734.938 492.599C678.771 416.051 616.479 331.137 541.312 264.528C393.499 133.523 195.855 73.3092 -102.873 286.634L-103.148 286.537C195.775 73.0448 393.556 133.307 541.491 264.402C616.671 331.032 678.98 415.952 735.159 492.52C745.568 506.697 755.778 520.616 765.808 534.061ZM770.122 521.868L770.038 522.106C763.362 513.387 756.598 504.48 749.691 495.428C687.142 413.207 615.25 318.713 528.906 246.544C373.113 116.35 170.206 58.8836 -109.877 277.421L-109.729 277.002C170.319 58.672 373.229 116.187 529.063 246.427C615.425 318.602 687.329 413.116 749.895 495.343C756.76 504.348 763.483 513.21 770.122 521.868ZM774.442 509.661L774.358 509.899C772.054 506.96 769.733 504.014 767.404 501.035C698.003 412.504 614.239 305.674 514.072 227.009C353.575 100.987 150.864 47.3351 -102.668 257.048L-102.515 256.615C150.978 47.1236 353.708 100.83 514.218 226.871C614.419 305.549 698.178 412.392 767.591 500.944C769.9 503.869 772.18 506.768 774.442 509.661ZM778.771 497.426L778.687 497.664C703.894 404.487 608.749 288.359 496.425 205.865C332.615 85.5464 132.22 36.8201 -94.9297 235.179L-94.7664 234.718C132.368 36.6207 332.748 85.389 496.571 205.727C608.865 288.196 703.973 404.263 778.771 497.426ZM783.111 485.163L783.027 485.401C703.612 388.622 597.878 266.749 475.643 183.202C310.33 70.1875 114.831 27.3471 -86.5727 211.562L-86.4045 211.087C114.979 27.1477 310.458 70.044 475.793 183.05C597.993 266.586 703.691 388.399 783.111 485.163ZM787.45 472.9L787.366 473.138C694.852 362.74 562.467 219.274 413.927 136.866C258.747 50.7702 85.9301 31.3434 -77.4784 185.862L-77.3052 185.372C86.1001 31.1361 258.88 50.6128 414.026 136.696C562.57 219.091 694.936 362.502 787.45 472.9ZM791.799 460.61L791.715 460.847C696.879 349.911 556.113 205.163 402.601 122.112C247.482 38.1935 79.3433 17.291 -67.6024 157.952L-67.4243 157.449C79.5083 17.0977 247.61 38.05 402.717 121.948C556.212 204.993 696.941 349.681 791.799 460.61ZM796.153 448.305L796.074 448.528C699.16 337.344 550.493 191.767 392.426 107.985C330.801 75.3227 267.746 52.0509 205.787 43.8772C143.827 35.7036 82.9614 42.6281 25.7009 70.3381C-2.87396 84.1733 -30.5555 103.186 -57.0386 128.099L-56.8654 127.609C-30.4811 102.867 -2.91272 83.9551 25.5466 70.1734C82.8612 42.4196 143.783 35.4993 205.782 43.6711C267.781 51.843 330.87 75.127 392.525 107.816C550.574 191.591 699.222 337.115 796.153 448.305ZM800.513 435.986L800.433 436.21C696.544 319.174 529.071 163.591 357.799 81.6195C299.051 53.4992 239.846 34.0439 182.605 27.776C125.381 21.5142 70.104 28.4337 19.2107 53.063C-3.46924 64.0596 -25.2811 78.5573 -46.0295 96.9871L-45.8613 96.5117C-25.2238 78.2314 -3.4981 63.8134 19.0785 52.8904C70.021 28.2313 125.338 21.3099 182.618 27.576C239.898 33.8421 299.12 53.3035 357.903 81.4359C529.157 163.402 696.588 318.938 800.513 435.986ZM804.877 423.653L804.797 423.877C728.92 339.882 617.152 235.824 495.274 153.127C404.212 91.3403 307.504 41.4647 215.955 20.8225C124.406 0.180329 38.0028 8.75139 -32.5048 63.7918C-33.3342 64.4423 -34.1636 65.0929 -34.9808 65.7634L-34.8324 65.344C-34.1112 64.781 -33.4073 64.2119 -32.6862 63.6489C37.8805 8.55077 124.362 -0.0239379 215.98 20.6426C307.581 41.303 404.305 91.1847 495.419 152.989C617.25 235.655 728.994 339.672 804.877 423.653ZM809.246 411.306L809.166 411.53C727.681 322.845 602.65 211.529 468.793 126.355C377.645 68.3615 282.399 22.4959 194.035 4.16076C112.533 -12.7533 36.8788 -6.26291 -24.3477 35.7144L-24.2141 35.3368C37.0194 -6.49637 112.624 -12.9569 194.053 3.94676C282.469 22.3002 377.732 68.1718 468.909 126.192C602.753 211.345 727.743 322.615 809.246 411.306ZM813.62 398.945L813.54 399.169C726.25 305.692 586.731 186.811 440.576 99.6296C349.888 45.5275 256.641 3.62622 171.747 -12.4426C102.052 -25.6346 37.9609 -21.3934 -14.4717 7.80466L-14.3579 7.48305C38.0794 -21.619 102.116 -25.8164 171.776 -12.6366C256.71 3.43047 349.991 45.3439 440.692 99.4661C586.813 186.635 726.307 305.476 813.62 398.945ZM817.998 386.571L817.919 386.794C724.736 288.557 569.641 161.962 411.184 73.2751C321.426 23.0425 230.616 -15.0386 149.374 -28.9184C91.6435 -38.7737 38.7332 -36.4132 -5.51598 -17.5042L-5.41207 -17.7979C38.8296 -36.6309 91.7128 -38.9695 149.404 -29.1123C230.681 -15.2204 321.53 22.8588 411.3 73.1115C569.723 161.786 724.776 288.336 817.998 386.571ZM69.466 347.617C398.406 234.917 530.563 280.155 603.548 377.459C635.936 420.639 656.66 474.057 677.753 528.454C682.92 541.768 688.105 555.136 693.491 568.432L693.199 568.329C687.833 555.086 682.671 541.759 677.507 528.493C656.41 474.11 635.685 420.692 603.326 377.538C530.437 280.347 398.413 235.171 69.7924 347.733L69.466 347.617Z" fill="#9CA3AF"/>
</svg>
