<svg width="410" height="628" viewBox="0 0 410 628" fill="none" xmlns="http://www.w3.org/2000/svg">
<path d="M197.587 662.2L197.515 661.996C205.335 649.864 213.453 637.803 221.547 625.791C248.27 586.133 274.708 546.913 288.667 506.927C320.864 414.758 286.677 318.546 36.81 203.669L36.73 203.44C286.847 318.406 321.051 414.706 288.839 506.989C274.872 546.99 248.438 586.223 221.691 625.889C213.568 637.938 205.422 650.036 197.587 662.2ZM200.076 669.3L200 669.084C208.827 654.009 218.206 638.983 227.572 623.962C253.575 582.29 279.502 540.753 293.211 498.764C325.342 400.277 290.212 299.229 31.2583 187.874L31.1783 187.646C290.394 299.084 325.557 400.229 293.383 498.825C279.67 540.842 253.743 582.379 227.732 624.067C218.334 639.114 208.931 654.188 200.076 669.3ZM203.012 677.674L202.932 677.446C212.549 659.314 223.072 641.149 233.618 622.934C259.037 579.012 284.609 534.861 298.022 490.507C329.747 385.552 293.366 279.491 26.0002 172.8L25.9243 172.584C293.544 279.335 329.962 385.503 298.19 490.556C284.768 534.926 259.201 579.089 233.77 623.016C223.2 641.279 212.653 659.494 203.012 677.674ZM206.391 687.309L206.311 687.081C216.485 665.854 228.031 644.402 239.65 622.803C264.649 576.316 290.031 529.128 303.1 481.994C334.005 370.487 295.96 259.289 20.9708 158.495L20.895 158.279C296.138 259.132 334.205 370.43 303.263 482.032C290.187 529.181 264.808 576.381 239.802 622.884C228.159 644.532 216.589 666.033 206.391 687.309ZM212.821 692.259L212.602 692.336C222.554 669.851 234.027 646.9 245.66 623.663C270.409 574.202 295.81 523.432 308.466 472.976C338.091 354.929 297.88 238.609 16.2233 144.956L16.1517 144.751C298.058 238.452 338.286 354.86 308.634 473.025C295.969 523.498 270.561 574.283 245.812 623.745C234.215 646.928 222.75 669.823 212.821 692.259ZM223.354 688.566L223.134 688.643C231.819 668.127 241.645 647.075 251.626 625.687C276.312 572.766 301.983 517.693 314.154 463.238C341.958 338.746 299 217.44 11.7786 132.24L11.7069 132.036C299.149 217.279 342.125 338.674 314.305 463.279C302.143 517.758 276.46 572.835 251.773 625.756C241.821 647.108 232.031 668.106 223.354 688.566ZM233.91 684.865L233.691 684.941C241.068 666.786 249.207 648.107 257.5 629.05C282.326 572.074 308.583 511.803 320.097 452.506C345.482 321.78 299.135 195.806 7.60016 120.363L7.53276 120.17C299.296 195.642 345.677 321.711 320.26 452.543C308.738 511.857 282.481 572.127 257.648 629.12C249.39 648.124 241.264 666.758 233.91 684.865ZM244.491 681.155L244.272 681.231C250.245 665.902 256.69 650.124 263.262 634.005C288.443 572.304 315.645 505.671 326.298 440.523C348.64 303.889 298.205 173.791 3.75831 109.406L3.69091 109.213C298.374 173.61 348.847 303.817 326.474 440.556C315.813 505.72 288.615 572.365 263.422 634.07C256.874 650.141 250.452 665.87 244.491 681.155ZM255.096 677.436L254.877 677.513C259.334 665.589 264.031 653.338 268.832 640.834C294.597 573.694 323.185 499.222 332.667 426.985C351.326 284.923 296.077 151.481 0.249247 99.3979L0.181846 99.2057C296.222 151.308 351.504 284.847 332.842 427.018C323.353 499.272 294.769 573.755 268.996 640.912C264.227 653.35 259.541 665.557 255.096 677.436ZM265.726 673.709L265.519 673.781C268.316 665.988 271.202 658.055 274.119 649.976C300.7 576.694 331.248 492.469 339.108 411.626C353.275 265.77 293.519 130.913 3.22967 91.1891L3.59539 91.0609C293.723 130.869 353.446 265.751 339.268 411.651C331.412 492.506 300.856 576.747 274.278 650.042C271.373 658.076 268.5 665.964 265.726 673.709ZM276.368 669.977L276.161 670.05C277.078 667.395 277.99 664.727 278.923 662.039C306.536 582.054 339.847 485.528 345.438 394.229C354.378 247.953 292.058 115.074 20.9905 84.9615L21.3684 84.829C292.262 115.03 354.554 247.945 345.605 394.238C340.023 485.561 306.7 582.092 279.079 662.093C278.174 664.744 277.273 667.367 276.368 669.977ZM287.034 666.237L286.827 666.31C315.028 581.209 349.225 474.132 351.505 374.563C354.837 229.35 290.22 100.109 40.0557 78.2766L40.458 78.1356C290.432 100.089 355.012 229.342 351.673 374.572C349.396 474.112 315.223 581.14 287.034 666.237ZM297.725 662.489L297.518 662.562C325.957 573.262 358.952 457.797 357.089 352.503C354.586 210.091 288.272 86.3162 60.6446 71.0575L61.0591 70.9122C288.484 86.2959 354.749 210.088 357.269 352.508C359.123 457.777 326.152 573.193 297.725 662.489ZM308.415 658.74L308.208 658.813C339.703 555.935 374.648 415.854 359.046 297.299C342.75 173.444 271.262 73.096 83.0498 63.2015L83.4765 63.0519C271.49 73.0834 342.925 173.437 359.213 297.268C374.827 415.818 339.91 555.863 308.415 658.74ZM319.13 654.983L318.923 655.056C349.651 550.693 381.366 405.578 363.766 284.096C345.98 161.343 277.824 62.7273 107.381 54.6701L107.82 54.5162C278.04 62.719 346.144 161.34 363.937 284.076C381.533 405.547 349.842 550.613 319.13 654.983ZM329.858 651.222L329.663 651.291C359.541 545.715 387.946 396.04 368.614 271.805C361.077 223.371 346.284 178.802 321.497 142.23C296.71 105.658 261.928 77.0838 214.419 60.6212C190.705 52.4092 163.819 47.212 133.407 45.5446L133.833 45.395C164.079 47.094 190.839 52.2816 214.458 60.4591C262.024 76.9286 296.831 105.535 321.639 142.127C346.447 178.718 361.247 223.311 368.781 271.774C388.109 395.997 359.732 545.634 329.858 651.222ZM340.597 647.457L340.402 647.525C370.93 535.408 397.062 370.934 369.97 240.651C360.679 195.961 345.118 155.291 321.323 122.135C297.533 88.9917 265.504 63.3506 223.277 48.7189C204.445 42.2087 183.597 37.8757 160.529 36.0345L160.944 35.8892C183.853 37.7456 204.602 42.0725 223.333 48.5646C265.604 63.2075 297.654 88.8683 321.469 122.044C345.284 155.219 360.849 195.901 370.149 240.616C397.237 370.886 371.116 535.315 340.597 647.457ZM351.349 643.687L351.154 643.755C372.414 562.598 390.012 452.721 387.731 348.033C386.027 269.815 373.234 194.487 342.585 136.239C311.936 77.9917 263.439 36.809 190.344 26.8218C189.482 26.7058 188.62 26.5898 187.75 26.4901L188.115 26.3619C188.863 26.464 189.606 26.5542 190.354 26.6563C263.519 36.6461 312.057 77.8683 342.723 136.164C373.385 194.447 386.181 269.788 387.899 348.042C390.178 452.689 372.597 562.534 351.349 643.687ZM362.112 639.913L361.917 639.981C383.691 553.571 399.825 433.158 393.378 320.959C388.985 244.561 374.114 171.971 343.423 116.532C315.117 65.3954 273.361 28.8375 213.946 17.3048L214.275 17.1894C273.593 28.7966 315.304 65.3433 343.581 116.436C374.285 171.912 389.16 244.513 393.549 320.94C400.004 433.122 383.882 553.491 362.112 639.913ZM372.888 636.134L372.693 636.203C394.954 544.388 409.236 412.643 398.138 292.996C391.256 218.752 374.603 149.162 344.038 96.659C318.946 53.5566 284.449 21.968 238.277 8.77349L238.558 8.67519C284.665 21.9194 319.105 53.501 344.189 96.5794C374.774 149.102 391.435 218.716 398.309 292.976C409.399 412.6 395.132 544.312 372.888 636.134ZM383.677 632.351L383.481 632.42C406.163 535.169 418.163 391.449 402.061 264.598C392.938 192.745 374.819 126.313 344.524 76.8052C322.991 41.6288 295.308 14.9901 260.341 1.03715L260.597 0.947388C295.507 14.9338 323.162 41.5689 344.674 76.7256C374.977 126.258 393.117 192.709 402.232 264.578C418.325 391.405 406.337 535.081 383.677 632.351ZM42.5096 219.924C283.003 337.346 316.475 429.02 284.505 515.2C270.318 553.444 243.249 590.592 215.678 628.415C208.932 637.675 202.157 646.971 195.531 656.337L195.459 656.133C202.058 646.804 208.816 637.54 215.53 628.306C243.089 590.486 270.157 553.338 284.341 515.123C316.279 429.048 282.829 337.475 42.5897 220.152L42.5096 219.924Z" fill="#9CA3AF"/>
</svg>
