<svg width="303" height="562" viewBox="0 0 303 562" fill="none" xmlns="http://www.w3.org/2000/svg">
<path d="M0.963763 31.433L0.965078 31.6233C11.0361 39.3448 21.3332 46.9192 31.596 54.4602C65.4782 79.3568 98.9951 103.976 122.411 132.93C176.401 199.665 176.647 289.44 3.91467 458.644L3.91614 458.857C176.829 289.506 176.572 199.653 122.535 132.828C99.1079 103.863 65.5909 79.2329 31.686 54.3365C21.389 46.7733 11.0576 39.1767 0.963763 31.433ZM0.918068 24.8177L0.91946 25.0191C12.6975 34.8781 24.9172 44.5325 37.1255 54.187C71.0093 80.9641 104.79 107.652 128.593 138.339C184.403 210.323 185.302 304.38 4.00496 473.363L4.00643 473.576C185.496 304.446 184.596 210.299 128.717 138.237C104.903 107.528 71.122 80.8402 37.2267 54.052C24.9843 44.3865 12.7304 34.6988 0.918068 24.8177ZM0.864178 17.0158L0.865647 17.2285C14.2042 29.3826 28.3022 41.2964 42.4344 53.2436C76.5027 82.0567 110.765 111.014 135.024 143.746C192.417 221.204 193.768 319.78 4.12462 487.4L4.12601 487.601C193.962 319.857 192.61 221.18 135.149 143.655C110.878 110.913 76.6155 81.944 42.5359 53.1309C28.3693 41.1504 14.2371 29.2033 0.864178 17.0158ZM0.802169 8.03858L0.803638 8.25129C15.5217 22.8026 31.4423 37.1329 47.4657 51.5633C81.947 82.6236 116.954 114.15 141.752 149.285C200.411 232.41 201.908 335.732 4.20538 500.731L4.20677 500.933C202.102 335.809 200.593 232.397 141.877 149.206C117.067 114.06 82.0599 82.5221 47.5671 51.4507C31.5094 36.987 15.5546 22.6233 0.802169 8.03858ZM4.65642 2.0344L4.45202 2.03581C19.3595 17.694 35.6635 33.2866 52.1847 49.068C87.3423 82.6647 123.426 117.151 148.869 155.158C208.408 244.075 209.632 352.279 4.29252 513.347L4.29383 513.537C209.826 352.356 208.59 244.073 148.993 155.067C123.539 117.049 87.4437 82.5521 52.2861 48.9554C35.8106 33.2073 19.5296 17.6593 4.65642 2.0344ZM14.4692 1.96662L14.2647 1.96803C27.5394 16.3726 41.9165 30.8815 56.5223 45.6239C92.6539 82.1019 130.238 120.07 156.466 161.531C216.409 256.322 216.838 369.468 4.38564 525.189L4.38696 525.379C217.009 369.556 216.568 256.332 156.579 161.451C130.351 119.968 92.7554 82.0005 56.6239 45.5224C42.0522 30.8022 27.7208 16.3265 14.4692 1.96662ZM24.3046 1.89869L24.1002 1.9001C35.5922 14.7386 47.8694 27.7844 60.3868 41.0972C97.8361 80.8907 137.448 122.987 164.568 168.65C224.358 269.319 223.368 387.333 4.45079 536.26L4.45202 536.439C223.55 387.422 224.54 269.318 164.692 168.571C137.561 122.896 97.9491 80.8004 60.4884 40.9958C48.0165 27.7162 35.7623 14.7039 24.3046 1.89869ZM34.1628 1.83059L33.9584 1.832C43.4495 12.7478 53.4647 23.8951 63.6859 35.2871C102.831 78.8861 145.112 125.967 173.256 176.728C232.28 283.19 229.129 405.831 4.5213 546.468L4.52254 546.647C229.323 405.93 232.473 283.188 173.391 176.649C145.237 125.877 102.955 78.7845 63.7988 35.1855C53.6118 23.8268 43.631 12.713 34.1628 1.83059ZM44.0437 1.76234L43.8393 1.76375C51.0652 10.3108 58.5877 19.0574 66.2705 27.9819C107.513 75.9098 153.266 129.068 182.543 186.044C240.129 298.091 233.986 424.928 4.58571 555.792L4.58694 555.971C234.157 425.027 240.299 298.101 182.678 185.965C153.39 128.977 107.637 75.8081 66.3833 27.8692C58.7463 18.9891 51.2466 10.276 44.0437 1.76234ZM53.9473 1.69393L53.7543 1.69527C58.3817 7.31627 63.1233 13.0261 67.9338 18.8473C111.674 71.6161 161.943 132.265 192.431 196.846C247.424 313.365 237.97 442.71 9.48767 561.702L9.82839 561.7C238.152 442.686 247.571 313.33 192.555 196.778C162.067 132.186 111.787 71.5258 68.0467 18.7458C63.2591 12.958 58.5404 7.2816 53.9473 1.69393ZM63.8623 1.62545L63.6692 1.62678C65.2158 3.55267 66.7625 5.48972 68.332 7.43785C114.914 65.4482 171.119 135.459 202.83 209.367C253.623 327.785 241.46 456.253 26.0354 561.588L26.3874 561.586C241.641 456.229 253.77 327.739 202.966 209.31C171.255 135.38 115.038 65.3689 68.445 7.34747C66.9097 5.42156 65.386 3.51792 63.8623 1.62545ZM73.8 1.5568L73.6069 1.55814C122.193 63.6292 182.262 142.11 213.686 223.844C259.521 343.046 244.377 469.184 43.7982 561.465L44.1731 561.463C244.559 469.138 259.668 343 213.822 223.787C182.409 142.075 122.375 63.628 73.8 1.5568ZM83.7604 1.488L83.5673 1.48934C133.597 66.9646 195.158 152.745 224.852 240.446C265.026 359.06 246.857 481.178 62.9808 561.333L63.367 561.33C247.038 481.132 265.162 359.015 224.999 240.389C195.306 152.71 133.779 66.9634 83.7604 1.488ZM93.7208 1.4192L93.5277 1.42054C150.114 77.2274 220.592 182.804 242.848 285.557C266.1 392.904 236.7 497.167 83.8556 561.189L84.2531 561.186C236.892 497.109 266.248 392.858 242.995 285.534C220.751 182.781 150.307 77.2261 93.7208 1.4192ZM103.704 1.35025L103.511 1.35158C159.903 78.615 229.201 189.315 250.671 295.085C272.364 401.961 245.207 503.802 106.525 561.032L106.934 561.029C245.388 503.745 272.5 401.916 250.818 295.05C229.348 189.292 160.084 78.6249 103.704 1.35025ZM113.698 1.28121L113.517 1.28247C169.565 79.802 237.476 195.258 258.33 303.819C266.459 346.144 267.437 387.421 257.77 425.043C248.103 462.666 227.791 496.635 193.353 524.354C176.161 538.185 155.45 550.463 130.773 560.865L131.17 560.862C155.7 550.484 176.309 538.252 193.433 524.477C227.917 496.735 248.24 462.732 257.918 425.087C267.596 387.442 266.618 346.143 258.477 303.796C237.624 195.246 169.747 79.812 113.698 1.28121ZM123.704 1.2121L123.522 1.21335C182.049 84.9546 252.469 213.334 268.693 329.203C274.26 368.948 273.446 407.226 263.587 441.727C253.728 476.217 234.825 506.941 204.215 531.578C190.559 542.552 174.589 552.323 156.043 560.69L156.429 560.687C174.839 552.355 190.73 542.618 204.307 531.689C234.95 507.029 253.865 476.283 263.735 441.76C273.605 407.236 274.419 368.947 268.852 329.18C252.628 213.322 182.231 84.9757 123.704 1.2121ZM133.721 1.1429L133.54 1.14416C175.212 62.0093 222.371 147.732 251.54 235.057C273.332 300.302 285.09 366.444 277.001 423.746C268.913 481.049 240.989 529.521 183.452 559.471C182.773 559.823 182.094 560.174 181.404 560.515L181.745 560.513C182.333 560.206 182.922 559.911 183.51 559.605C241.103 529.632 269.049 481.115 277.138 423.768C285.226 366.432 273.468 300.278 251.676 235C222.519 147.709 175.382 62.0081 133.721 1.1429ZM143.75 1.07363L143.568 1.07489C187.223 66.1353 236.297 161.013 264.245 255.79C283.272 320.326 292.497 384.818 283.541 439.809C275.282 490.531 251.566 533.176 205.811 560.346L206.118 560.344C251.77 533.141 275.452 490.518 283.7 439.842C292.656 384.817 283.431 320.314 264.392 255.755C236.456 160.989 187.405 66.1452 143.75 1.07363ZM153.79 1.00428L153.608 1.00554C199.269 70.3954 250.172 175.2 276.48 277.522C292.808 341.014 299.668 403.553 289.945 456.075C281.963 499.193 262.781 535.572 228.48 560.19L228.741 560.188C262.974 535.549 282.111 499.192 290.093 456.096C299.827 403.551 292.967 340.991 276.627 277.488C250.32 175.188 199.44 70.4053 153.79 1.00428ZM163.841 0.934856L163.659 0.936111C211.281 74.7004 263.848 190.095 288.151 299.863C301.915 362.041 306.625 422.4 296.237 472.364C288.849 507.866 273.839 538.126 249.037 560.048L249.275 560.046C274.02 538.114 289.008 507.865 296.384 472.385C306.772 422.399 302.073 362.017 288.298 299.829C263.995 190.083 211.452 74.7216 163.841 0.934856ZM3.81006 443.499C168.028 274.969 168.537 189.164 116.511 127.318C93.4241 99.8727 59.9999 77.1558 25.9595 54.029C17.6292 48.3664 9.26456 42.6817 1.00149 36.8955L1.00281 37.0857C9.23166 42.8498 17.5734 48.5123 25.8696 54.164C59.8986 77.2909 93.3228 100.008 116.398 127.43C168.367 189.198 167.846 274.915 3.80859 443.286L3.81006 443.499Z" fill="#D1D5DB"/>
</svg>
